<?xml version="1.0" standalone="no"?>
<!DOCTYPE svg PUBLIC "-//W3C//DTD SVG 20010904//EN"
 "http://www.w3.org/TR/2001/REC-SVG-20010904/DTD/svg10.dtd">
<svg version="1.0" xmlns="http://www.w3.org/2000/svg"
 width="600.000000pt" height="168.000000pt" viewBox="0 0 600.000000 168.000000"
 preserveAspectRatio="xMidYMid meet">

<g transform="translate(0.000000,168.000000) scale(0.100000,-0.100000)"
fill="#000000" stroke="none">
<path d="M859 1581 c-44 -14 -73 -32 -118 -75 -31 -29 -40 -34 -31 -17 9 18 9
22 0 16 -7 -4 -21 -26 -31 -49 -11 -25 -19 -33 -19 -21 0 11 9 40 20 65 19 43
19 44 1 22 -11 -12 -22 -41 -26 -63 l-7 -42 -19 31 c-25 39 -68 56 -116 47
l-38 -7 55 -15 c30 -7 64 -23 75 -34 l20 -20 -28 10 c-16 6 -50 11 -77 11 -41
0 -55 -5 -82 -30 l-33 -30 40 20 c39 20 99 25 143 14 27 -8 29 -24 4 -24 -10
0 -43 -17 -73 -38 -84 -60 -148 -75 -229 -52 l-35 9 35 -30 c19 -16 53 -35 75
-41 22 -6 41 -13 43 -14 2 -1 -8 -13 -22 -27 -32 -32 -35 -59 -3 -30 25 23 77
39 77 24 0 -11 -51 -51 -89 -71 -13 -7 -46 -13 -73 -13 -26 0 -48 -2 -48 -4 0
-9 81 -34 117 -35 24 -2 43 -4 43 -5 0 -2 -15 -10 -32 -18 -31 -14 -31 -15 -5
-10 37 7 34 -8 -13 -55 -24 -24 -57 -44 -86 -53 -60 -17 -41 -26 70 -34 69 -5
77 -8 61 -20 -18 -12 -17 -13 6 -13 23 -1 23 -1 5 -15 -25 -19 -5 -19 41 0 19
8 37 15 39 15 11 0 -29 -61 -48 -74 -28 -20 -8 -21 37 -2 20 9 35 11 35 5 0
-16 -31 -72 -53 -96 -32 -36 -7 -27 52 18 30 22 51 34 47 25 -21 -53 -21 -52
-3 -37 14 11 17 11 17 -1 0 -14 -46 -62 -90 -92 l-25 -18 25 7 c14 4 27 12 28
16 2 5 9 6 14 3 6 -4 8 -2 5 3 -4 6 1 17 10 24 15 12 16 12 10 -4 -6 -17 -3
-16 29 4 l36 22 -13 -22 c-8 -11 -16 -21 -19 -21 -4 0 -15 -7 -26 -15 -18 -14
-17 -14 9 -5 43 15 44 13 7 -25 -34 -35 -46 -40 -334 -150 -63 -24 -111 -49
-131 -69 -17 -17 -19 -21 -5 -8 40 34 43 27 10 -20 -32 -44 -70 -151 -70 -198
0 -16 -5 -30 -11 -32 -7 -2 -7 -11 0 -28 l10 -25 0 27 c1 15 6 30 12 33 6 4
23 25 39 46 16 22 31 35 34 30 3 -5 15 -7 26 -4 16 4 20 14 20 53 0 27 3 56 6
64 4 9 68 48 143 86 139 71 166 91 260 195 50 55 57 55 36 0 -7 -18 -5 -17 18
4 43 39 29 -17 -16 -67 -13 -14 -16 -22 -7 -22 7 0 28 16 46 36 l34 35 0 -50
c0 -46 -2 -51 -22 -51 -43 0 -10 -9 132 -35 194 -35 180 -29 180 -78 -1 -23
-5 -61 -9 -84 l-8 -42 66 -52 66 -52 -52 54 c-51 53 -53 57 -53 111 0 62 14
85 23 38 5 -21 22 -40 67 -70 37 -25 72 -60 90 -88 16 -26 30 -42 30 -36 0 24
-59 101 -93 119 -40 21 -42 25 -52 97 -5 38 -3 48 12 57 16 9 14 11 -14 17
-17 3 -30 11 -28 18 2 6 6 22 9 36 4 18 18 31 44 43 22 9 64 44 96 76 48 51
57 57 65 43 8 -14 11 -11 17 16 l7 33 17 -28 c9 -15 27 -37 40 -48 l22 -20
-21 35 c-14 23 -21 51 -20 80 l1 45 13 -30 c10 -22 14 -25 15 -11 0 17 3 16
25 -8 14 -15 41 -34 60 -42 47 -19 56 -18 22 5 -32 20 -51 45 -61 78 -6 18 -4
22 8 17 13 -5 16 2 16 37 0 40 1 42 16 27 9 -9 23 -38 30 -65 l13 -48 0 45 c0
25 -6 63 -14 85 -8 22 -15 41 -15 43 0 1 14 -13 31 -33 38 -43 101 -81 149
-90 32 -6 30 -4 -16 18 -43 21 -114 88 -114 108 0 4 17 10 37 14 45 8 133 52
133 65 0 6 -22 10 -48 10 -27 0 -55 6 -64 13 -18 15 -92 136 -86 142 9 9 71
-32 84 -55 l15 -25 -4 32 c-3 29 -1 31 32 37 39 6 101 40 101 55 0 4 -18 -1
-41 -12 -54 -26 -111 -27 -145 -1 -29 21 -71 91 -61 101 3 3 23 -5 43 -17 l37
-23 -18 26 c-9 14 -31 35 -48 46 l-32 20 25 10 c25 10 25 10 -5 10 l-30 1 41
25 c46 28 86 80 108 143 l15 43 -29 -21 c-53 -37 -114 -60 -165 -59 l-50 0 33
14 c17 8 32 17 32 20 0 3 -10 1 -21 -6 -30 -16 -107 -13 -151 5 -55 23 -71 18
-18 -5 48 -21 35 -19 -75 11 l-70 20 55 -2 c54 -1 145 14 157 26 4 3 -32 6
-78 6 -54 0 -109 7 -154 20 -72 20 -140 24 -186 11z m91 -43 c-84 -35 -150
-70 -145 -77 2 -5 -8 -14 -23 -20 l-27 -12 30 30 c38 39 132 89 165 90 l25 0
-25 -11z m140 -68 c18 -6 7 -8 -41 -9 -76 -1 -150 -21 -232 -63 -66 -33 -68
-21 -4 19 83 52 206 76 277 53z m230 -82 c13 -29 25 -73 28 -98 l4 -45 39 3
c45 5 49 -6 20 -55 -11 -17 -16 -33 -11 -35 5 -2 11 -16 15 -33 l6 -30 -18 30
c-15 25 -24 30 -53 28 -37 -2 -33 1 12 11 17 4 34 18 43 36 20 39 20 40 -15
40 -30 0 -78 -35 -65 -48 3 -4 9 -2 13 3 9 13 42 16 42 4 0 -9 -6 -11 -52 -14
-25 -2 -26 -1 -13 19 17 23 20 40 6 32 -4 -3 -6 6 -3 19 4 25 -16 90 -26 80
-9 -9 -9 -64 0 -59 4 3 8 -7 8 -23 0 -21 -3 -24 -10 -13 -7 11 -11 8 -21 -15
l-11 -30 -14 40 c-21 59 -33 63 -23 8 11 -55 5 -83 -13 -65 -7 7 -13 24 -14
40 -1 15 -2 32 -3 39 0 7 -17 15 -36 19 -19 3 -32 11 -29 16 3 5 -7 24 -22 41
-17 19 -20 24 -6 13 12 -11 22 -16 22 -12 0 3 13 -8 28 -25 l29 -32 11 46 c9
33 23 55 54 81 23 20 45 36 49 36 3 0 17 -24 29 -52z m-182 -29 c24 -17 42
-33 39 -35 -2 -2 -28 12 -58 32 -50 34 -54 35 -57 16 -7 -43 42 -106 94 -122
l29 -8 -32 -1 c-55 -2 -110 76 -112 157 l-1 34 28 -22 c15 -12 47 -35 70 -51z
m-163 31 c-3 -5 -15 -10 -26 -10 -10 0 -19 -5 -19 -11 0 -12 -39 -2 -55 13 -7
7 0 9 23 5 18 -4 32 -2 32 3 0 6 12 10 26 10 14 0 23 -4 19 -10z m41 -5 c-3
-8 0 -15 7 -15 8 0 6 -4 -3 -10 -12 -8 -12 -10 5 -10 20 -1 20 -1 1 -15 -24
-18 -40 -19 -29 -2 10 16 13 37 4 37 -10 0 -52 -29 -83 -58 -32 -30 -50 -22
-22 9 16 18 111 79 123 79 2 0 1 -7 -3 -15z m-162 -46 c-27 -28 -64 -39 -64
-19 0 5 9 14 21 20 11 7 18 14 15 18 -3 3 -18 -5 -32 -19 -19 -18 -27 -21 -33
-10 -6 9 -11 10 -15 2 -4 -6 -15 -11 -24 -11 -15 1 -14 3 3 16 11 8 24 13 30
10 6 -2 19 2 28 9 9 7 35 12 58 12 l40 0 -27 -28z m55 14 c-1 -14 -60 -56 -67
-48 -4 4 6 18 21 31 28 24 48 31 46 17z m73 -48 c-2 -25 -8 -45 -13 -45 -10 0
-12 50 -3 74 12 30 19 16 16 -29z m-32 -5 c0 -32 -6 -36 -30 -20 -12 7 -12 12
4 29 25 27 26 27 26 -9z m100 9 c0 -12 -50 -32 -59 -23 -8 8 39 45 50 38 5 -3
9 -10 9 -15z m-271 -3 c-10 -8 -129 -13 -123 -5 3 5 33 9 66 9 34 0 59 -2 57
-4z m145 -38 c43 -22 14 -33 -37 -13 -23 9 -65 20 -92 25 -47 9 -46 9 25 6 42
-1 88 -9 104 -18z m136 13 c0 -5 -8 -11 -17 -14 -10 -2 -27 -8 -37 -13 -14 -5
-17 -4 -12 5 13 21 66 39 66 22z m-387 -8 c-7 -2 -21 -2 -30 0 -10 3 -4 5 12
5 17 0 24 -2 18 -5z m21 -28 c-42 -37 -54 -42 -54 -23 0 9 -3 9 -12 0 -7 -7
-27 -12 -46 -12 -30 0 -33 2 -21 16 8 10 25 14 49 13 25 -2 46 4 66 19 47 35
61 25 18 -13z m171 3 c7 -7 -7 -9 -49 -5 -32 3 -64 11 -70 18 -8 9 3 10 49 5
33 -4 64 -12 70 -18z m226 5 c13 -15 11 -16 -11 -10 -14 4 -29 7 -35 7 -10 0
15 20 26 20 4 0 13 -8 20 -17z m-448 0 c-7 -2 -21 -2 -30 0 -10 3 -4 5 12 5
17 0 24 -2 18 -5z m116 -9 c17 -4 29 -10 26 -14 -3 -4 -21 -4 -41 0 -66 15
-53 27 15 14z m141 -13 c0 -13 -53 -46 -70 -43 -8 1 -26 5 -40 8 -24 5 -24 6
-5 17 11 6 38 14 60 18 22 3 43 7 48 8 4 0 7 -3 7 -8z m235 -17 l40 -19 -130
-6 c-71 -3 -140 -9 -152 -13 -36 -11 -27 10 15 39 34 24 44 26 112 22 46 -2
90 -11 115 -23z m-395 7 c14 -4 20 -10 14 -14 -15 -9 -85 4 -78 14 6 10 28 10
64 0z m-51 -31 c25 -1 25 -1 6 -12 -31 -18 -171 -6 -159 14 4 7 29 8 67 4 33
-3 72 -6 86 -6z m156 -21 c5 -6 1 -9 -10 -9 -11 0 -47 -11 -79 -25 -33 -13
-62 -22 -65 -20 -9 10 20 56 41 65 25 10 98 3 113 -11z m223 -56 c30 -47 41
-59 36 -39 -5 22 -4 27 6 21 9 -6 11 1 6 26 -4 25 -4 29 3 14 5 -11 10 -31 11
-45 2 -21 4 -19 16 15 l14 40 -5 -43 c-6 -45 -34 -111 -63 -147 -9 -11 0 -4
21 15 l37 34 -11 -33 c-6 -18 -28 -51 -49 -72 -29 -31 -33 -38 -16 -33 66 19
149 87 194 157 l28 45 12 -44 c19 -72 18 -74 -37 -74 -28 0 -53 -4 -56 -10 -4
-6 17 -10 54 -10 34 0 61 -2 61 -4 0 -1 -5 -17 -11 -35 -11 -31 -12 -31 -30
-15 -11 9 -40 20 -65 24 -54 8 -66 -6 -39 -46 14 -21 14 -28 3 -42 -12 -16
-11 -16 6 -2 10 8 30 13 43 12 13 -2 31 2 39 8 17 15 17 15 3 -52 -17 -78 -33
-105 -112 -185 -55 -56 -78 -73 -99 -73 -36 0 -216 90 -263 131 -20 18 -45 50
-56 72 -16 30 -25 38 -40 34 -12 -3 -19 0 -19 8 0 8 -4 16 -8 19 -4 3 -7 -13
-6 -35 2 -43 -4 -52 -26 -39 -11 7 -11 11 -1 23 8 11 9 17 1 22 -8 5 -7 11 2
22 11 14 10 15 -9 9 -12 -4 -31 -2 -42 3 -20 11 -58 96 -53 118 2 8 -4 11 -15
7 -10 -3 11 9 46 26 35 16 66 28 69 26 8 -9 -9 -25 -21 -20 -7 2 -24 -7 -37
-21 -14 -15 -18 -25 -10 -25 7 0 18 7 25 17 8 11 18 14 31 9 18 -8 18 -9 -3
-17 -27 -10 -28 -19 -7 -62 l15 -32 -25 28 c-23 25 -26 26 -26 8 0 -25 36 -51
72 -51 35 0 43 15 20 38 -11 11 -19 32 -19 48 0 16 -3 37 -7 47 -5 10 -4 17 2
17 5 0 17 -17 25 -37 14 -33 16 -35 17 -13 1 19 6 14 21 -25 10 -27 28 -61 39
-75 l20 -25 -15 37 c-23 56 -19 57 30 3 l45 -50 -20 45 c-11 25 -20 55 -20 68
0 22 1 22 31 7 17 -9 33 -14 37 -11 3 3 0 6 -6 6 -15 0 -59 76 -67 115 l-6 30
15 -30 14 -30 1 40 c1 59 33 105 72 105 25 0 30 -3 25 -16 -5 -14 -4 -15 9 -4
16 13 43 -2 122 -66 18 -14 37 -24 43 -22 17 5 -37 56 -93 88 l-48 27 26 32
c15 17 32 31 38 31 7 0 31 -30 55 -67z m-387 15 c-9 -23 -31 -52 -49 -66 l-31
-24 9 34 c8 27 68 98 84 98 3 0 -3 -19 -13 -42z m260 20 c-5 -14 -18 -24 -32
-26 -24 -3 -24 -3 4 23 35 31 39 31 28 3z m-411 -3 c0 -8 -7 -15 -16 -15 -14
0 -14 3 -4 15 7 8 14 15 16 15 2 0 4 -7 4 -15z m30 -35 c0 -27 -4 -50 -10 -50
-5 0 -10 23 -10 50 0 28 5 50 10 50 6 0 10 -22 10 -50z m80 36 c-18 -17 -81
-35 -65 -18 6 6 19 12 30 15 11 2 8 3 -7 2 -16 -1 -28 2 -28 7 0 4 19 8 42 8
37 0 40 -2 28 -14z m674 -6 c14 -5 35 -26 46 -47 12 -21 19 -30 16 -20 -18 57
-18 67 -3 67 19 0 37 -58 36 -115 0 -33 -2 -36 -10 -20 -7 16 -8 12 -5 -15 4
-30 3 -32 -7 -16 -7 11 -35 55 -63 98 -53 80 -54 85 -10 68z m-789 -30 c-3 -5
-14 -10 -23 -10 -15 0 -15 2 -2 10 20 13 33 13 25 0z m69 -15 c-12 -9 -14 -14
-6 -15 17 0 8 -50 -17 -95 -18 -33 -30 -45 -48 -45 -20 0 -15 21 19 80 18 30
31 63 30 72 -2 9 5 18 15 20 26 6 29 0 7 -17z m611 -46 c-8 -19 -13 -25 -9
-14 3 11 8 34 12 50 3 17 8 23 10 14 1 -9 -4 -32 -13 -50z m-675 26 c0 -8 -9
-15 -20 -15 -20 0 -26 11 -13 23 12 13 33 7 33 -8z m-20 -29 c0 -2 -7 -9 -15
-16 -12 -10 -15 -10 -15 4 0 9 7 16 15 16 8 0 15 -2 15 -4z m30 1 c0 -2 -11
-25 -24 -53 -24 -47 -25 -47 -25 -19 -1 31 22 75 40 75 5 0 9 -1 9 -3z m205
-120 c13 -31 23 -57 20 -57 -6 0 -41 69 -50 100 -12 39 2 19 30 -43z m36 26
c13 -16 12 -17 -3 -4 -10 7 -18 15 -18 17 0 8 8 3 21 -13z m494 -99 c0 -16 -6
-18 -35 -16 -39 3 -67 22 -29 19 13 0 27 -6 31 -12 4 -5 8 1 8 13 0 15 5 22
13 20 6 -3 12 -13 12 -24z m-505 -195 c7 -16 15 -27 18 -24 5 4 152 -208 152
-219 0 -9 -75 14 -79 25 -2 7 -6 8 -10 1 -4 -7 -27 -6 -71 1 l-65 12 -3 44
c-3 41 -2 44 14 30 16 -13 17 -12 10 6 -4 11 -11 38 -14 60 -5 37 -4 39 12 26
15 -13 16 -12 6 13 -5 15 -10 39 -10 53 0 21 3 23 14 14 8 -6 19 -25 26 -42z"/>
<path d="M1290 1385 c0 -19 4 -35 8 -35 13 0 32 -47 33 -83 2 -31 2 -31 6 -4
4 25 -32 157 -43 157 -2 0 -4 -16 -4 -35z"/>
<path d="M1244 1336 c-16 -13 -27 -27 -24 -29 3 -3 18 6 34 19 15 14 26 27 23
30 -2 3 -18 -6 -33 -20z"/>
<path d="M1200 1215 c0 -5 5 -17 10 -25 5 -8 10 -10 10 -5 0 6 -5 17 -10 25
-5 8 -10 11 -10 5z"/>
<path d="M578 1183 c7 -3 16 -2 19 1 4 3 -2 6 -13 5 -11 0 -14 -3 -6 -6z"/>
<path d="M996 1031 c49 -30 50 -43 2 -16 -31 18 -58 25 -96 25 l-52 0 17 -26
c16 -24 18 -25 25 -8 6 14 7 12 3 -7 -3 -15 1 -31 8 -36 15 -13 77 -25 76 -15
-1 4 2 17 6 30 l8 23 26 -25 27 -26 -2 28 c-1 15 -3 30 -3 34 -1 8 -55 38 -68
38 -4 0 6 -9 23 -19z m-56 -25 c0 -11 -19 -15 -25 -6 -3 5 1 10 9 10 9 0 16
-2 16 -4z m30 -36 c0 -5 -11 -10 -24 -10 -14 0 -28 5 -31 10 -4 6 7 10 24 10
17 0 31 -4 31 -10z"/>
<path d="M1213 913 c9 -2 23 -2 30 0 6 3 -1 5 -18 5 -16 0 -22 -2 -12 -5z"/>
<path d="M1010 718 c0 -4 14 -8 30 -8 17 0 30 2 30 4 0 2 -13 6 -30 8 -16 3
-30 1 -30 -4z"/>
<path d="M3910 975 c0 -11 -16 -15 -67 -17 l-68 -3 -9 -43 c-7 -33 -6 -46 3
-52 9 -5 10 -10 2 -14 -7 -5 -11 -62 -11 -172 l0 -165 48 7 c26 3 50 8 55 11
4 2 7 78 7 169 0 157 1 164 20 164 19 0 20 -7 20 -176 0 -162 1 -175 18 -171
9 3 34 8 55 12 l37 6 0 164 0 165 25 0 25 0 0 -119 c0 -69 -4 -122 -10 -126
-5 -3 -10 -28 -10 -56 0 -44 2 -49 23 -49 12 0 33 7 46 16 43 30 51 71 51 248
0 191 3 186 -99 186 -48 0 -61 3 -61 15 0 11 -12 15 -50 15 -37 0 -50 -4 -50
-15z"/>
<path d="M4457 960 c-11 -29 -14 -30 -74 -30 l-63 0 0 -45 0 -45 40 0 c25 0
40 -5 40 -12 0 -7 -27 -76 -60 -153 -63 -150 -63 -152 -1 -157 l32 -3 63 149
63 149 26 -69 c15 -38 40 -106 58 -151 17 -46 36 -83 43 -83 12 0 76 20 76 23
0 1 -25 67 -55 147 -30 80 -55 148 -55 153 0 4 16 7 35 7 23 0 35 5 35 14 0 7
3 28 6 45 l7 31 -66 0 c-57 0 -65 2 -60 18 3 13 -5 21 -30 30 -46 16 -47 16
-60 -18z"/>
<path d="M1697 953 c-4 -3 -7 -26 -7 -50 l0 -43 58 -1 c31 0 51 -3 45 -6 -19
-7 -18 -265 1 -302 14 -26 53 -51 80 -51 19 0 37 88 20 98 -16 9 -18 20 -16
155 l2 107 49 0 c53 0 61 10 61 73 l0 27 -143 0 c-79 0 -147 -3 -150 -7z"/>
<path d="M2116 944 c-3 -9 -6 -29 -6 -45 0 -24 4 -29 25 -29 21 0 25 -5 25
-29 0 -23 -5 -30 -22 -33 -19 -2 -24 -10 -26 -45 -3 -40 -1 -43 22 -43 24 0
26 -3 26 -50 0 -56 15 -93 52 -127 18 -17 41 -24 104 -29 45 -4 84 -3 86 2 3
5 9 28 13 52 l7 42 -74 0 c-44 0 -79 5 -86 12 -7 7 -12 31 -12 55 l0 43 79 0
79 0 6 31 c12 60 13 59 -79 59 -84 0 -85 0 -85 25 0 25 1 25 78 25 l79 0 11
39 c7 21 12 43 12 50 0 8 -46 11 -154 11 -131 0 -155 -2 -160 -16z"/>
<path d="M2555 928 c-4 -18 -9 -41 -11 -50 -4 -15 1 -18 28 -18 27 -1 30 -2
16 -11 -14 -8 -18 -24 -18 -79 0 -59 -3 -71 -20 -80 l-20 -11 20 -39 c11 -22
20 -59 20 -85 l0 -46 43 3 42 3 3 55 c2 37 8 59 19 68 26 19 37 15 57 -23 29
-54 80 -101 117 -109 39 -7 49 4 49 55 0 31 -4 38 -30 49 -29 12 -70 57 -70
77 0 5 13 17 30 26 40 24 50 46 57 127 5 55 2 74 -11 95 -16 25 -17 25 -165
25 l-149 0 -7 -32z m235 -103 c0 -32 -4 -37 -42 -54 -91 -39 -88 -40 -88 28
l0 61 65 0 65 0 0 -35z"/>
<path d="M3033 918 l-9 -43 61 -5 c44 -4 54 -7 39 -13 -20 -7 -22 -16 -26
-135 -2 -70 -9 -137 -16 -148 -6 -12 -25 -27 -42 -34 -28 -11 -30 -16 -30 -62
l0 -50 33 7 c51 11 115 53 134 88 14 26 18 67 21 235 l4 202 -80 0 -81 0 -8
-42z"/>
<path d="M3326 938 c-13 -49 -7 -68 19 -68 21 0 25 -5 25 -29 0 -23 -5 -30
-22 -33 -19 -2 -24 -10 -26 -45 -3 -40 -1 -43 22 -43 25 0 26 -3 26 -52 0 -58
23 -106 63 -132 26 -18 171 -34 179 -20 3 5 9 28 13 52 l7 42 -74 0 c-44 0
-79 5 -86 12 -7 7 -12 31 -12 55 l0 43 79 0 79 0 6 31 c12 60 13 59 -79 59
-84 0 -85 0 -85 25 0 25 1 25 78 25 l79 0 11 39 c7 21 12 43 12 50 0 8 -46 11
-154 11 -151 0 -154 0 -160 -22z"/>
<path d="M4800 735 c0 -250 -5 -234 69 -219 l31 6 0 116 c0 108 1 115 16 94
13 -19 24 -22 75 -22 l59 0 0 -45 c0 -34 -5 -48 -20 -57 -15 -10 -20 -24 -20
-57 l0 -43 48 7 c72 10 82 24 82 115 0 61 3 79 15 84 12 4 14 14 9 43 -3 21
-10 42 -15 47 -5 6 -9 43 -9 83 l0 73 -45 0 -45 0 0 -75 0 -75 -75 0 -75 0 0
75 0 75 -50 0 -50 0 0 -225z"/>
<path d="M5280 938 c0 -13 -3 -33 -6 -45 -6 -21 -3 -23 37 -23 39 -1 42 -2 27
-14 -15 -11 -18 -30 -18 -130 0 -107 -2 -116 -19 -116 -14 0 -20 -10 -25 -38
-10 -64 -14 -62 84 -62 l90 0 0 45 c0 33 -4 45 -15 45 -13 0 -15 22 -15 135 0
113 2 135 15 135 9 0 15 9 15 23 0 12 3 32 6 45 6 22 5 22 -85 22 -88 0 -91
-1 -91 -22z"/>
<path d="M5580 735 l0 -225 45 0 45 0 0 155 c0 123 3 155 13 155 24 0 126 -80
142 -110 17 -33 20 -100 5 -100 -5 0 -10 -23 -10 -51 l0 -51 38 6 c21 4 47 18
60 32 21 24 22 32 22 220 l0 194 -50 0 -50 0 0 -75 0 -75 -36 39 c-36 40 -93
67 -119 57 -11 -4 -15 2 -15 24 0 29 -2 30 -45 30 l-45 0 0 -225z"/>
<path d="M4462 607 l-42 -43 25 -24 25 -24 45 44 45 44 -22 23 c-12 13 -24 23
-28 23 -3 0 -25 -19 -48 -43z"/>
<path d="M410 575 c-19 -7 -30 -14 -25 -15 6 0 -7 -10 -27 -21 -21 -11 -38
-22 -38 -25 0 -5 125 61 139 72 9 8 -15 2 -49 -11z"/>
<path d="M508 574 c-38 -20 -36 -28 2 -9 17 9 30 18 30 20 0 7 -1 6 -32 -11z"/>
<path d="M258 533 c7 -3 16 -2 19 1 4 3 -2 6 -13 5 -11 0 -14 -3 -6 -6z"/>
<path d="M160 483 l-45 -48 45 41 c25 23 52 44 60 47 13 5 13 6 0 6 -9 1 -36
-20 -60 -46z"/>
<path d="M270 479 l-35 -30 38 26 c33 24 43 35 34 35 -1 0 -18 -14 -37 -31z"/>
<path d="M55 390 c-21 -22 -37 -41 -34 -43 2 -2 21 16 43 40 49 54 43 56 -9 3z"/>
<path d="M630 406 c0 -36 -10 -55 -25 -50 -7 3 -36 -10 -63 -30 -27 -19 -62
-36 -78 -38 -16 -2 1 -6 39 -9 65 -4 66 -3 45 13 l-23 17 27 10 c14 5 28 15
30 22 6 18 227 -99 400 -213 81 -54 148 -94 148 -90 0 8 -104 111 -162 159
-20 18 -33 33 -29 35 4 2 11 33 13 70 l6 67 -67 15 c-36 8 -102 20 -146 26
-44 6 -88 13 -97 16 -14 4 -18 -1 -18 -20z"/>
<path d="M1100 382 c-13 -15 -15 -55 -4 -94 3 -9 21 -27 40 -39 19 -12 48 -44
64 -73 20 -34 44 -60 75 -78 25 -16 48 -28 51 -28 13 0 -61 92 -126 157 -40
39 -70 77 -68 83 4 14 100 -59 158 -120 42 -44 20 -11 -30 44 l-35 40 30 -18
c17 -10 46 -30 65 -44 l35 -25 -25 27 c-14 15 -52 44 -84 64 -56 34 -58 37
-33 40 32 4 127 -67 203 -151 26 -29 42 -42 36 -31 -7 12 -35 48 -64 80 -52
57 -51 60 5 21 42 -29 43 -14 2 22 -28 24 -31 31 -17 31 20 0 66 -45 107 -105
30 -44 28 -25 -6 54 -11 24 -18 46 -16 48 13 12 49 -41 66 -97 12 -40 20 -55
21 -40 1 24 2 23 20 -10 l19 -35 1 38 c0 28 4 37 18 37 26 0 50 -18 36 -27 -6
-5 -15 -19 -19 -31 -6 -22 -5 -23 14 -12 12 6 31 8 42 5 19 -6 18 -3 -7 34
-21 33 -34 42 -66 47 -29 5 -46 16 -70 47 -40 50 -75 64 -163 66 -81 1 -95 3
-115 16 -8 5 -40 10 -70 10 -51 0 -55 2 -58 25 -5 34 -14 41 -32 22z"/>
<path d="M2389 306 c-2 -2 -3 -36 -1 -75 l4 -71 39 0 c32 0 41 5 51 25 15 33
-12 75 -47 75 -20 0 -25 5 -25 25 0 22 -10 32 -21 21z m69 -99 c3 -22 -1 -27
-18 -27 -23 0 -35 22 -26 46 10 25 41 12 44 -19z"/>
<path d="M2655 300 c-3 -5 -1 -10 4 -10 6 0 11 5 11 10 0 6 -2 10 -4 10 -3 0
-8 -4 -11 -10z"/>
<path d="M3049 306 c-2 -3 -3 -36 -1 -75 l4 -71 39 0 c33 0 41 4 50 26 13 35
-11 74 -46 74 -18 0 -25 5 -25 19 0 19 -13 35 -21 27z m69 -99 c3 -22 -1 -27
-18 -27 -23 0 -35 22 -26 46 10 25 41 12 44 -19z"/>
<path d="M4273 296 c4 -10 7 -44 7 -77 0 -34 4 -59 10 -59 17 0 8 142 -9 148
-10 3 -12 0 -8 -12z"/>
<path d="M4440 300 c0 -5 5 -10 11 -10 5 0 7 5 4 10 -3 6 -8 10 -11 10 -2 0
-4 -4 -4 -10z"/>
<path d="M4734 285 c6 -22 3 -25 -22 -25 -35 0 -52 -16 -52 -50 0 -36 17 -50
63 -50 32 0 38 3 33 16 -3 9 -6 42 -6 75 0 36 -4 59 -11 59 -7 0 -9 -10 -5
-25z m-6 -78 c3 -22 -1 -27 -18 -27 -23 0 -35 22 -26 46 10 25 41 12 44 -19z"/>
<path d="M5370 300 c0 -5 5 -10 11 -10 5 0 7 5 4 10 -3 6 -8 10 -11 10 -2 0
-4 -4 -4 -10z"/>
<path d="M3 245 c0 -27 2 -38 4 -22 2 15 2 37 0 50 -2 12 -4 0 -4 -28z"/>
<path d="M303 262 c-17 -15 -38 -43 -48 -62 -19 -39 -16 -36 39 33 31 39 44
48 62 44 13 -2 24 0 24 4 0 19 -50 7 -77 -19z"/>
<path d="M2738 273 c-7 -28 3 -113 13 -113 5 0 9 18 9 39 0 22 6 42 13 45 10
5 10 7 0 12 -7 3 -13 12 -13 20 0 20 -17 17 -22 -3z"/>
<path d="M2050 251 c0 -6 4 -12 9 -15 5 -3 12 -22 15 -41 9 -44 32 -46 45 -2
l9 32 7 -32 c11 -47 30 -41 49 14 19 55 19 53 7 53 -5 0 -15 -15 -21 -32 l-13
-33 -10 33 c-11 35 -25 41 -33 15 -15 -46 -17 -48 -27 -15 -9 29 -37 46 -37
23z"/>
<path d="M2248 235 c-17 -38 3 -75 41 -75 16 0 33 5 36 10 4 6 -6 10 -24 10
-16 0 -33 5 -36 10 -4 6 8 10 29 10 28 0 36 4 36 18 0 45 -63 59 -82 17z m57
-5 c3 -5 -3 -10 -14 -10 -12 0 -21 5 -21 10 0 6 6 10 14 10 8 0 18 -4 21 -10z"/>
<path d="M2533 243 c-4 -10 2 -23 15 -34 27 -21 28 -29 2 -29 -11 0 -20 -5
-20 -11 0 -6 12 -9 28 -7 34 4 44 43 13 53 -24 7 -28 25 -6 25 8 0 15 5 15 10
0 17 -40 11 -47 -7z"/>
<path d="M2650 210 c0 -27 5 -50 10 -50 6 0 10 23 10 50 0 28 -4 50 -10 50 -5
0 -10 -22 -10 -50z"/>
<path d="M2844 252 c-18 -12 -24 -41 -14 -67 8 -20 16 -25 45 -25 19 0 35 5
35 10 0 6 -13 10 -30 10 -16 0 -30 5 -30 10 0 6 14 10 30 10 25 0 30 4 30 24
0 31 -38 47 -66 28z m46 -22 c0 -5 -9 -10 -20 -10 -11 0 -20 5 -20 10 0 6 9
10 20 10 11 0 20 -4 20 -10z"/>
<path d="M3205 236 c-12 -18 -13 -30 -6 -50 9 -22 16 -26 51 -26 l40 0 0 48
c0 49 0 49 -35 50 -26 1 -39 -4 -50 -22z m60 -16 c8 -26 -1 -40 -26 -40 -13 0
-19 7 -19 23 0 40 34 53 45 17z"/>
<path d="M3362 248 c-7 -7 -12 -24 -12 -38 0 -14 5 -31 12 -38 14 -14 68 -16
68 -2 0 6 -14 10 -31 10 -27 0 -30 3 -27 28 2 19 9 28 26 30 12 2 22 8 22 13
0 13 -44 11 -58 -3z"/>
<path d="M3492 248 c-13 -13 -16 -47 -6 -72 4 -11 19 -16 48 -16 l41 0 -3 48
c-4 47 -5 49 -36 50 -18 1 -38 -4 -44 -10z m53 -38 c0 -18 -6 -26 -22 -28 -18
-3 -23 1 -23 21 0 28 9 39 30 35 9 -2 15 -14 15 -28z"/>
<path d="M3710 208 c0 -56 17 -65 22 -10 2 29 7 37 23 37 16 0 21 -8 23 -37 4
-50 22 -49 22 1 0 46 -14 60 -58 59 -32 -1 -32 -2 -32 -50z"/>
<path d="M3866 245 c-34 -34 -9 -89 38 -83 38 4 53 29 40 65 -11 33 -53 43
-78 18z m59 -35 c0 -18 -6 -26 -21 -28 -23 -3 -37 18 -27 44 10 25 48 13 48
-16z"/>
<path d="M3990 250 c0 -5 4 -10 9 -10 5 0 13 -17 18 -37 13 -57 36 -53 55 7
11 33 13 50 5 47 -6 -2 -16 -19 -22 -38 l-12 -34 -12 38 c-11 33 -41 53 -41
27z"/>
<path d="M4142 248 c-7 -7 -12 -24 -12 -38 0 -14 5 -31 12 -38 14 -14 68 -16
68 -2 0 6 -11 10 -24 10 -14 0 -28 5 -31 10 -4 6 8 10 29 10 28 0 36 4 36 18
0 24 -19 42 -45 42 -12 0 -26 -5 -33 -12z m53 -18 c4 -6 -5 -10 -20 -10 -15 0
-24 4 -20 10 3 6 12 10 20 10 8 0 17 -4 20 -10z"/>
<path d="M4434 244 c3 -9 6 -31 6 -50 0 -19 5 -34 10 -34 6 0 10 23 10 50 0
39 -3 50 -16 50 -11 0 -14 -5 -10 -16z"/>
<path d="M4514 243 c3 -8 6 -30 6 -49 0 -19 5 -34 10 -34 6 0 10 16 10 35 0
23 6 38 16 42 20 7 34 -13 34 -49 0 -16 5 -28 10 -28 13 0 13 56 0 80 -13 24
-95 27 -86 3z"/>
<path d="M4825 240 c-27 -29 -10 -74 28 -78 36 -4 57 13 57 47 0 51 -50 69
-85 31z m60 -30 c0 -18 -6 -26 -21 -28 -26 -4 -40 24 -23 45 18 21 44 11 44
-17z"/>
<path d="M4964 243 c3 -8 6 -30 6 -49 0 -46 18 -43 22 4 2 29 7 37 23 37 16 0
21 -8 23 -37 4 -45 22 -51 22 -7 0 51 -15 68 -61 67 -31 0 -39 -4 -35 -15z"/>
<path d="M5122 248 c-7 -7 -12 -24 -12 -38 0 -14 5 -31 12 -38 14 -14 68 -16
68 -2 0 6 -11 10 -24 10 -14 0 -28 5 -31 10 -4 6 8 10 29 10 28 0 36 4 36 18
0 24 -19 42 -45 42 -12 0 -26 -5 -33 -12z m53 -18 c4 -6 -5 -10 -20 -10 -15 0
-24 4 -20 10 3 6 12 10 20 10 8 0 17 -4 20 -10z"/>
<path d="M5257 253 c-14 -13 -6 -41 16 -56 l22 -16 -22 0 c-32 -1 -29 -21 2
-21 35 0 44 28 17 51 -26 20 -28 29 -7 29 8 0 15 5 15 10 0 11 -33 14 -43 3z"/>
<path d="M5364 244 c3 -9 6 -31 6 -50 0 -19 5 -34 10 -34 6 0 10 23 10 50 0
39 -3 50 -16 50 -11 0 -14 -5 -10 -16z"/>
<path d="M5450 241 c-26 -49 -5 -81 53 -81 32 0 38 3 33 16 -3 9 -6 31 -6 50
0 32 -2 34 -35 34 -24 0 -37 -6 -45 -19z m58 -34 c3 -22 -1 -27 -18 -27 -23 0
-35 22 -26 46 10 25 41 12 44 -19z"/>
<path d="M450 227 c81 -35 178 -85 240 -124 l55 -35 -43 45 c-48 49 -53 52
-162 95 -96 38 -172 54 -90 19z"/>
<path d="M620 246 c0 -2 16 -14 36 -26 51 -32 35 -36 -25 -6 -80 41 -73 30 14
-19 43 -25 89 -55 102 -67 41 -38 36 -11 -6 34 -34 37 -121 97 -121 84z"/>
<path d="M288 178 c-9 -7 -19 -24 -23 -38 -7 -24 -7 -24 15 4 22 26 27 28 74
23 28 -4 62 -9 76 -12 14 -2 7 1 -15 9 -69 23 -110 27 -127 14z"/>
<path d="M11 154 c0 -11 3 -14 6 -6 3 7 2 16 -1 19 -3 4 -6 -2 -5 -13z"/>
</g>
</svg>
