<?xml version="1.0" encoding="UTF-8" ?>
<!DOCTYPE svg PUBLIC "-//W3C//DTD SVG 1.1//EN" "http://www.w3.org/Graphics/SVG/1.1/DTD/svg11.dtd">
<svg width="600pt" height="168pt" viewBox="0 0 600 168" version="1.1" xmlns="http://www.w3.org/2000/svg">
<g id="#ffffffff">
<path fill="#ffffff" opacity="1.00" d=" M 75.72 25.10 C 79.76 18.80 87.16 16.59 93.27 13.03 C 94.81 13.00 96.34 13.02 97.88 13.08 C 92.17 15.76 85.73 17.21 80.72 21.22 C 80.56 21.55 80.24 22.21 80.08 22.54 C 78.76 23.60 77.27 24.41 75.72 25.10 Z" />
<path fill="#ffffff" opacity="1.00" d=" M 74.24 31.78 C 81.43 24.89 91.02 20.46 101.00 19.97 C 106.55 19.99 112.00 21.42 117.02 23.77 C 103.39 18.67 88.52 23.52 76.68 30.78 C 75.86 31.12 75.05 31.45 74.24 31.78 Z" />
<path fill="#ffffff" opacity="1.00" d=" M 118.43 38.07 C 118.37 31.24 124.28 27.06 129.29 23.58 C 132.69 29.72 136.04 36.70 134.71 43.92 C 137.52 43.23 140.40 42.91 143.30 42.90 C 142.97 46.44 140.93 49.42 139.02 52.30 C 138.55 51.95 138.08 51.59 137.62 51.23 C 140.20 49.66 140.98 46.61 142.21 44.06 C 138.48 43.86 134.36 43.87 132.06 47.42 C 136.30 40.43 132.15 32.31 129.34 25.61 C 129.19 27.72 128.91 29.84 129.12 31.95 C 131.37 34.04 133.16 36.74 133.07 40.01 C 131.54 37.85 130.38 35.47 128.77 33.36 C 127.51 36.69 129.48 39.59 130.64 42.54 L 128.58 42.55 C 128.70 41.89 128.95 40.57 129.07 39.91 L 128.46 40.05 C 128.35 42.53 127.35 44.82 126.71 47.18 C 126.40 47.36 125.78 47.72 125.47 47.90 C 124.21 44.73 123.46 41.27 121.21 38.61 C 121.99 43.13 122.93 47.61 123.58 52.15 C 123.37 51.59 122.93 50.47 122.71 49.91 L 121.44 50.96 L 122.09 47.70 L 120.05 49.83 C 119.12 46.00 118.80 42.00 118.43 38.07 M 121.04 38.37 C 123.71 36.44 127.04 34.72 128.43 31.60 C 125.22 32.87 122.69 35.38 121.04 38.37 M 120.21 46.71 C 120.85 47.34 120.85 47.34 120.21 46.71 Z" />
<path fill="#ffffff" opacity="1.00" d=" M 103.93 24.53 C 107.56 28.66 112.86 30.63 116.80 34.33 C 117.07 34.95 117.61 36.19 117.87 36.81 C 116.41 35.78 115.05 34.63 113.78 33.37 C 113.43 33.98 113.08 34.58 112.75 35.20 C 114.67 36.98 116.60 38.75 118.40 40.67 C 115.67 40.08 112.47 38.44 110.18 40.86 C 112.98 42.06 115.89 42.90 118.93 43.17 C 116.08 44.98 112.30 44.18 109.98 41.88 C 105.02 37.66 103.86 30.71 103.93 24.53 M 105.46 28.83 C 106.06 32.39 107.03 35.92 108.93 39.02 C 110.34 38.52 111.78 38.45 113.30 38.51 C 111.49 36.31 109.52 34.25 107.80 31.99 C 108.58 32.49 110.14 33.49 110.92 34.00 C 111.33 33.35 111.76 32.72 112.18 32.07 C 109.88 31.12 107.67 29.97 105.46 28.83 Z" />
<path fill="#ffffff" opacity="1.00" d=" M 91.90 28.40 C 94.26 28.26 96.62 27.99 98.99 28.00 C 97.47 28.97 95.73 29.51 94.19 30.43 C 93.28 31.70 95.31 32.42 96.00 31.40 C 97.92 29.82 100.14 28.73 102.37 27.67 C 103.17 30.23 100.18 30.76 98.67 31.76 C 94.41 33.55 91.45 37.27 87.46 39.47 C 88.00 36.64 90.45 34.20 93.23 33.56 C 92.48 30.45 88.21 31.57 86.87 28.86 C 88.62 28.92 90.27 29.37 91.81 30.18 C 92.50 29.82 93.19 29.44 93.87 29.05 L 91.90 28.40 Z" />
<path fill="#ffffff" opacity="1.00" d=" M 78.94 37.11 C 80.37 33.32 84.38 31.36 88.04 30.30 C 86.92 33.09 84.03 34.45 82.50 36.97 C 81.61 37.00 79.83 37.08 78.94 37.11 Z" />
<path fill="#ffffff" opacity="1.00" d=" M 100.03 32.15 C 101.17 31.62 102.31 31.12 103.47 30.64 C 102.77 31.47 102.06 32.30 101.35 33.12 L 104.44 33.68 C 103.15 34.48 101.80 34.89 100.38 34.92 L 100.37 34.43 C 100.62 33.63 100.51 32.87 100.03 32.15 Z" />
<path fill="#ffffff" opacity="1.00" d=" M 69.88 35.81 C 72.01 34.67 74.18 33.61 76.40 32.65 C 75.63 33.80 74.83 34.92 74.04 36.05 C 72.65 35.98 71.27 35.90 69.88 35.81 Z" />
<path fill="#ffffff" opacity="1.00" d=" M 95.97 42.55 C 95.98 39.07 95.45 35.12 98.31 32.48 C 97.99 35.52 98.14 38.58 97.92 41.63 C 97.43 41.86 96.46 42.32 95.97 42.55 Z" />
<path fill="#ffffff" opacity="1.00" d=" M 90.31 39.45 C 91.70 37.65 93.39 36.12 95.28 34.86 C 95.14 36.95 95.02 39.04 94.95 41.14 C 93.41 40.57 91.86 40.01 90.31 39.45 Z" />
<path fill="#ffffff" opacity="1.00" d=" M 99.05 38.17 C 100.35 36.64 102.89 34.48 104.82 35.95 C 106.78 39.46 100.43 37.75 100.31 41.11 C 102.48 40.03 104.75 39.25 107.12 38.76 C 105.32 41.25 102.17 41.90 99.51 43.07 C 99.35 41.44 99.07 39.82 99.05 38.17 Z" />
<path fill="#ffffff" opacity="1.00" d=" M 64.68 38.53 C 68.64 35.63 73.72 37.26 78.23 37.24 C 74.01 39.13 69.17 37.95 64.68 38.53 Z" />
<path fill="#ffffff" opacity="1.00" d=" M 74.65 39.62 C 81.67 37.17 89.24 39.84 95.73 42.70 C 94.28 43.22 92.74 44.06 91.22 43.24 C 85.91 41.19 80.31 40.08 74.65 39.62 Z" />
<path fill="#ffffff" opacity="1.00" d=" M 63.47 47.18 C 65.32 43.31 68.90 40.33 73.24 39.83 C 71.48 41.63 69.39 43.04 67.25 44.33 C 70.26 45.57 73.56 45.74 76.72 46.43 C 74.18 49.18 70.62 46.82 67.50 47.03 C 66.94 46.53 66.38 46.04 65.81 45.55 L 65.98 47.10 L 63.47 47.18 Z" />
<path fill="#ffffff" opacity="1.00" d=" M 60.42 42.45 C 59.99 40.76 65.00 41.11 64.84 42.76 C 63.49 43.54 61.74 43.05 60.42 42.45 Z" />
<path fill="#ffffff" opacity="1.00" d=" M 72.93 41.12 C 77.13 40.43 81.29 41.52 85.39 42.30 C 86.64 46.11 79.89 42.31 78.91 45.03 C 79.27 46.77 81.50 45.61 82.46 45.19 C 85.34 44.66 88.28 44.51 91.20 44.55 C 89.04 46.22 86.85 47.84 84.77 49.61 C 82.18 49.03 79.58 48.47 76.98 47.91 C 77.49 47.17 78.15 46.11 77.13 45.46 C 74.67 44.80 72.14 44.43 69.65 43.90 C 72.09 41.27 75.55 45.05 77.85 43.39 C 76.20 42.65 74.52 41.97 72.93 41.12 Z" />
<path fill="#ffffff" opacity="1.00" d=" M 102.96 42.86 C 104.39 42.24 105.84 41.67 107.31 41.15 C 108.22 42.14 109.13 43.13 110.03 44.13 L 107.63 43.72 C 107.71 44.03 107.86 44.67 107.94 44.99 C 111.64 45.28 114.90 47.15 118.02 49.00 C 113.35 49.01 108.70 48.34 104.04 48.95 C 97.93 48.67 92.00 50.57 85.91 50.45 C 89.41 46.54 94.50 43.38 99.93 43.78 C 102.57 43.71 105.44 44.60 107.88 43.18 C 106.65 43.10 104.19 42.94 102.96 42.86 Z" />
<path fill="#ffffff" opacity="1.00" d=" M 55.07 46.99 C 56.03 45.98 57.00 44.98 57.97 43.97 C 60.20 43.89 62.44 43.88 64.68 43.85 C 62.41 47.00 58.68 47.52 55.07 46.99 Z" />
<path fill="#ffffff" opacity="1.00" d=" M 129.24 43.98 C 129.85 44.64 129.85 44.64 129.24 43.98 Z" />
<path fill="#ffffff" opacity="1.00" d=" M 135.54 46.02 C 135.40 46.59 135.14 47.72 135.01 48.28 C 136.58 47.53 138.16 46.75 139.73 45.98 C 139.01 46.76 138.29 47.54 137.59 48.33 C 135.75 49.03 133.93 49.77 132.08 50.42 C 133.26 48.98 134.44 47.53 135.54 46.02 Z" />
<path fill="#ffffff" opacity="1.00" d=" M 54.24 47.95 C 60.19 47.91 66.07 49.03 72.03 49.10 C 70.09 49.87 68.21 51.01 66.13 51.33 C 62.94 51.13 59.76 50.76 56.56 50.62 C 57.90 50.22 59.22 49.78 60.53 49.30 C 57.70 49.02 54.99 49.98 52.28 50.64 C 52.77 49.96 53.75 48.62 54.24 47.95 Z" />
<path fill="#ffffff" opacity="1.00" d=" M 71.13 51.08 C 73.00 50.27 74.89 49.53 76.79 48.78 C 79.59 49.66 82.60 49.93 85.22 51.34 C 79.22 52.56 73.70 55.20 68.24 57.86 C 69.07 55.55 70.08 53.30 71.13 51.08 Z" />
<path fill="#ffffff" opacity="1.00" d=" M 94.79 56.59 C 96.93 54.02 98.67 50.73 101.92 49.43 C 105.44 53.71 107.91 58.70 110.76 63.42 C 110.64 61.66 110.50 59.91 110.33 58.16 L 111.88 58.89 C 111.82 58.03 111.72 56.31 111.66 55.45 C 113.47 57.22 112.93 59.93 113.50 62.19 C 114.52 58.84 115.11 55.40 115.61 51.95 C 117.10 60.62 112.48 68.95 106.82 75.17 C 110.10 73.09 112.80 70.29 114.92 67.04 C 113.46 73.89 109.02 79.80 102.83 83.07 C 103.39 82.89 104.50 82.53 105.05 82.35 C 115.82 78.95 125.13 71.16 129.59 60.69 C 129.96 64.82 132.12 68.46 132.67 72.54 C 128.61 73.67 123.62 71.61 120.36 74.97 C 124.49 74.88 128.62 74.46 132.76 74.73 C 132.38 77.28 131.78 79.79 130.98 82.25 C 129.75 81.04 128.46 79.85 126.88 79.10 C 126.84 78.65 126.76 77.75 126.72 77.30 C 125.60 77.69 122.11 79.43 122.28 77.25 C 123.37 76.87 124.47 76.47 125.56 76.08 C 123.53 76.16 121.40 75.92 119.45 76.63 C 119.76 76.91 120.39 77.46 120.71 77.73 C 119.92 78.10 119.09 78.33 118.23 78.42 L 117.62 78.22 C 117.43 78.26 117.04 78.34 116.84 78.38 C 117.08 81.00 118.87 83.08 119.82 85.46 C 119.34 85.80 118.37 86.48 117.88 86.83 C 117.77 87.31 117.55 88.29 117.44 88.78 L 117.62 89.02 C 118.84 87.72 120.07 86.42 121.27 85.09 C 124.29 86.97 127.44 85.58 129.59 83.11 C 127.89 89.65 127.20 96.66 123.23 102.36 C 119.03 106.77 114.83 111.18 110.33 115.29 C 108.72 116.80 106.21 116.61 104.30 115.81 C 98.90 113.72 93.73 111.06 88.69 108.22 C 85.55 106.47 82.11 105.05 79.61 102.38 C 76.48 99.42 74.60 95.50 72.65 91.74 C 71.40 92.04 70.15 92.36 68.91 92.71 C 68.84 91.84 68.70 90.12 68.63 89.26 C 66.15 88.94 63.73 90.14 61.30 89.85 C 57.21 87.62 56.24 82.85 54.62 78.89 C 53.78 79.93 52.95 80.97 52.09 82.00 C 53.18 80.07 54.31 78.17 55.38 76.24 C 52.92 76.76 50.48 77.36 48.01 77.84 C 52.63 76.41 57.05 74.45 61.37 72.29 C 62.45 71.70 63.50 71.06 64.55 70.40 C 64.72 71.94 65.65 73.07 66.90 73.90 C 68.23 75.90 68.78 78.28 69.85 80.42 C 69.95 81.14 70.15 82.57 70.25 83.29 C 70.54 82.24 70.85 81.20 71.19 80.17 C 71.37 80.18 71.72 80.21 71.90 80.22 C 73.49 83.87 75.11 87.60 77.94 90.49 C 77.11 88.18 76.24 85.88 75.20 83.65 C 74.87 82.55 74.28 81.49 74.38 80.31 C 74.58 79.96 75.00 79.25 75.20 78.90 C 74.49 77.83 73.80 76.75 73.14 75.65 C 72.43 73.36 71.61 71.09 71.08 68.74 C 73.31 72.55 74.96 76.66 76.90 80.62 C 76.45 81.05 75.99 81.49 75.55 81.93 C 78.21 85.27 80.82 88.70 84.20 91.36 C 82.11 86.95 79.91 82.50 79.39 77.57 C 81.94 78.85 84.46 80.21 87.15 81.16 C 82.87 77.34 79.45 72.32 79.02 66.43 C 79.69 67.66 81.03 70.11 81.70 71.33 C 81.05 66.08 82.66 60.85 86.26 56.96 C 88.22 56.96 90.18 56.98 92.14 57.00 C 92.09 57.42 92.00 58.26 91.95 58.68 C 91.48 59.12 90.53 60.01 90.06 60.46 L 90.39 60.78 C 91.56 59.87 92.73 58.96 93.91 58.06 C 97.20 59.76 100.38 61.74 102.98 64.41 C 104.95 66.46 107.50 67.87 110.32 68.33 C 107.01 62.53 100.78 59.06 94.79 56.59 M 92.61 61.99 C 96.35 63.40 100.14 64.69 103.63 66.69 C 100.97 63.34 96.63 62.36 92.61 61.99 M 84.69 63.99 C 85.83 65.27 86.96 66.58 88.09 67.88 C 88.65 67.26 89.75 66.02 90.31 65.40 C 90.26 67.38 89.48 69.15 88.35 70.73 C 90.96 72.80 94.27 73.15 97.38 73.95 C 97.97 71.81 98.66 69.71 99.21 67.57 C 101.15 69.49 102.91 71.60 105.01 73.37 C 104.34 70.68 103.11 67.95 100.57 66.56 C 95.86 63.47 90.04 63.98 84.69 63.99 M 56.54 78.54 C 57.22 78.35 58.60 77.98 59.29 77.79 C 60.09 76.63 60.93 75.50 61.82 74.40 C 62.83 75.08 63.83 75.76 64.84 76.44 C 63.61 77.06 60.97 77.12 61.18 79.13 C 60.94 82.08 63.27 84.20 64.78 86.44 C 61.95 85.54 60.39 82.99 58.98 80.58 C 58.90 82.69 58.91 84.97 60.62 86.51 C 63.23 88.49 66.77 88.19 69.78 87.50 C 70.22 84.97 67.36 83.70 66.10 81.90 C 66.13 80.53 66.75 79.27 66.95 77.93 C 66.57 75.55 64.70 73.19 62.12 73.11 C 59.67 74.20 57.89 76.28 56.54 78.54 M 111.06 88.87 C 112.43 89.15 113.00 88.60 112.76 87.23 C 111.38 86.98 110.82 87.53 111.06 88.87 M 99.52 94.93 C 100.65 98.67 105.60 96.75 108.48 96.52 C 105.50 95.91 102.51 95.41 99.52 94.93 M 113.16 99.39 C 113.66 97.65 110.96 97.18 109.74 96.91 C 108.43 97.98 112.02 100.07 113.16 99.39 Z" />
<path fill="#ffffff" opacity="1.00" d=" M 88.30 55.98 C 90.35 53.88 92.53 51.84 95.22 50.58 C 94.49 52.41 93.69 54.20 92.90 56.01 C 91.37 56.00 89.83 55.99 88.30 55.98 Z" />
<path fill="#ffffff" opacity="1.00" d=" M 131.37 51.45 C 133.27 51.82 135.60 51.38 137.26 52.50 C 135.83 53.97 131.92 53.43 131.37 51.45 Z" />
<path fill="#ffffff" opacity="1.00" d=" M 49.05 58.41 C 50.05 56.05 50.67 53.42 52.57 51.57 C 52.63 52.37 52.74 53.97 52.80 54.77 C 52.39 54.91 51.57 55.17 51.17 55.31 C 51.55 55.65 52.32 56.33 52.70 56.67 C 52.56 56.97 52.28 57.58 52.13 57.88 C 51.36 58.02 49.82 58.28 49.05 58.41 Z" />
<path fill="#ffffff" opacity="1.00" d=" M 54.08 52.36 C 54.57 52.15 55.55 51.73 56.04 51.52 C 55.53 55.22 55.82 58.93 56.07 62.64 C 52.49 60.61 53.97 55.73 54.08 52.36 Z" />
<path fill="#ffffff" opacity="1.00" d=" M 57.13 51.78 C 59.92 51.70 62.72 51.90 65.45 52.46 C 63.33 54.08 60.62 52.94 58.24 52.80 C 58.07 53.22 57.73 54.04 57.56 54.45 C 58.78 54.31 61.23 54.02 62.46 53.88 L 62.59 55.21 C 60.74 55.42 58.91 55.74 57.09 56.09 C 57.12 54.65 57.13 53.21 57.13 51.78 Z" />
<path fill="#ffffff" opacity="1.00" d=" M 60.28 64.22 C 60.91 58.48 64.54 53.27 69.82 50.89 C 68.81 53.51 67.71 56.10 66.98 58.81 C 64.78 60.66 62.50 62.40 60.28 64.22 Z" />
<path fill="#ffffff" opacity="1.00" d=" M 142.07 58.40 C 141.02 56.14 138.12 53.46 140.53 51.14 C 141.21 53.52 141.81 55.94 142.07 58.40 Z" />
<path fill="#ffffff" opacity="1.00" d=" M 127.09 52.62 C 129.77 53.30 132.85 54.01 134.72 56.20 C 137.01 60.43 138.85 65.05 139.23 69.89 C 139.58 69.12 139.85 68.32 140.03 67.50 C 139.03 63.49 137.43 59.68 135.98 55.83 C 135.66 54.34 137.76 54.14 138.60 53.38 C 140.62 58.63 141.25 64.19 141.29 69.77 C 140.82 69.76 139.87 69.75 139.40 69.75 L 139.70 72.34 C 135.67 65.65 131.35 59.16 127.09 52.62 Z" />
<path fill="#ffffff" opacity="1.00" d=" M 118.37 68.00 C 119.70 63.59 120.64 59.04 122.50 54.81 C 122.25 59.50 120.63 63.93 118.37 68.00 Z" />
<path fill="#ffffff" opacity="1.00" d=" M 57.40 57.40 C 58.45 56.62 59.55 56.47 60.71 56.95 C 60.54 58.20 58.28 59.72 57.04 59.48 C 57.13 58.96 57.31 57.92 57.40 57.40 Z" />
<path fill="#ffffff" opacity="1.00" d=" M 50.08 59.07 C 50.79 58.98 52.20 58.79 52.91 58.69 C 53.00 59.55 53.17 61.27 53.25 62.13 C 51.52 62.01 49.80 61.89 48.07 61.72 C 48.73 60.83 49.40 59.95 50.08 59.07 Z" />
<path fill="#ffffff" opacity="1.00" d=" M 50.45 74.68 C 51.94 68.56 55.02 62.68 60.31 59.03 C 59.75 64.11 58.09 68.99 54.87 73.01 C 53.46 73.71 51.93 74.15 50.45 74.68 Z" />
<path fill="#ffffff" opacity="1.00" d=" M 48.84 65.74 C 47.19 65.55 48.14 62.89 49.45 62.86 C 51.29 62.99 50.16 65.66 48.84 65.74 Z" />
<path fill="#ffffff" opacity="1.00" d=" M 49.18 73.78 C 47.78 69.47 49.61 63.54 54.44 62.62 C 52.44 66.23 51.03 70.11 49.18 73.78 Z" />
<path fill="#ffffff" opacity="1.00" d=" M 91.20 66.69 C 92.30 66.75 93.39 66.83 94.50 66.92 C 93.45 68.01 92.38 69.06 91.32 70.13 C 93.40 70.31 95.48 70.27 97.55 70.00 C 96.53 73.05 93.33 72.54 91.07 71.26 C 91.15 69.74 91.19 68.22 91.20 66.69 Z" />
<path fill="#ffffff" opacity="1.00" d=" M 74.91 68.11 C 76.87 71.10 79.06 73.94 81.05 76.93 C 78.29 74.54 76.15 71.54 74.91 68.11 Z" />
<path fill="#ffffff" opacity="1.00" d=" M 70.16 76.78 C 71.55 77.06 71.77 77.76 70.83 78.86 C 69.48 78.69 69.26 78.00 70.16 76.78 Z" />
<path fill="#ffffff" opacity="1.00" d=" M 119.78 79.03 C 121.34 78.49 121.92 79.03 121.50 80.68 C 119.90 81.21 119.33 80.66 119.78 79.03 Z" />
<path fill="#ffffff" opacity="1.00" d=" M 125.46 80.08 C 126.42 80.48 127.39 80.88 128.35 81.28 C 127.74 83.57 126.75 85.75 123.95 85.39 C 124.55 83.65 125.06 81.88 125.46 80.08 Z" />
<path fill="#ffffff" opacity="1.00" d=" M 265.92 81.67 C 270.41 81.67 274.90 81.66 279.39 81.68 C 279.07 84.24 280.15 87.79 277.52 89.42 C 273.90 91.58 269.78 92.71 265.93 94.39 C 265.91 90.15 265.91 85.91 265.92 81.67 Z" />
<path fill="#ffffff" opacity="1.00" d=" M 65.10 90.96 C 65.49 89.90 66.30 89.68 67.51 90.30 C 67.53 90.90 67.57 92.11 67.60 92.71 C 66.56 93.46 65.84 93.36 65.43 92.41 C 65.52 92.25 65.70 91.94 65.79 91.79 L 65.69 91.61 C 65.54 91.44 65.25 91.12 65.10 90.96 Z" />
<path fill="#ffffff" opacity="1.00" d=" M 63.54 95.39 C 64.59 94.84 66.69 93.74 67.75 93.19 C 67.08 94.16 66.38 95.10 65.63 96.00 C 66.50 95.88 68.23 95.64 69.10 95.52 C 68.19 96.43 67.26 97.31 66.36 98.24 C 65.41 97.30 64.46 96.35 63.54 95.39 Z" />
<path fill="#ffffff" opacity="1.00" d=" M 72.98 96.04 C 75.44 99.00 77.81 102.21 78.62 106.05 C 78.85 105.22 79.09 104.39 79.33 103.56 C 84.18 111.38 89.54 118.87 94.34 126.72 C 91.77 126.05 88.69 126.25 86.53 124.53 C 85.96 121.96 84.58 119.80 82.81 117.91 C 82.86 120.53 85.16 122.18 85.53 124.70 C 80.87 124.02 76.06 123.64 71.53 122.45 C 70.33 120.03 71.29 116.91 71.02 114.24 C 72.06 114.86 73.10 115.49 74.13 116.13 C 72.74 112.38 71.69 108.46 71.92 104.42 C 73.01 105.44 74.09 106.46 75.22 107.44 C 73.62 103.85 72.40 100.03 72.98 96.04 Z" />
<path fill="#ffffff" opacity="1.00" d=" M 227.26 143.74 C 229.03 143.87 230.70 144.39 231.65 146.03 C 229.89 146.05 228.14 146.03 226.38 145.99 C 226.60 145.43 227.04 144.30 227.26 143.74 Z" />
<path fill="#ffffff" opacity="1.00" d=" M 240.81 149.05 C 240.80 146.95 240.95 143.27 244.04 143.95 C 247.07 144.24 246.32 148.09 246.07 150.21 C 244.21 150.38 242.40 150.06 240.81 149.05 Z" />
<path fill="#ffffff" opacity="1.00" d=" M 284.25 146.04 C 285.41 143.38 288.65 143.41 289.83 146.04 C 287.97 146.06 286.11 146.07 284.25 146.04 Z" />
<path fill="#ffffff" opacity="1.00" d=" M 306.80 149.05 C 307.05 147.29 306.54 144.08 309.12 143.96 C 312.43 143.13 313.57 148.63 310.95 150.00 C 309.60 151.20 308.10 149.45 306.80 149.05 Z" />
<path fill="#ffffff" opacity="1.00" d=" M 321.89 150.10 C 321.41 147.73 321.34 143.00 325.06 144.02 C 327.44 145.42 327.08 148.09 325.97 150.21 C 324.61 150.20 323.25 150.16 321.89 150.10 Z" />
<path fill="#ffffff" opacity="1.00" d=" M 351.07 150.10 C 348.83 148.45 349.50 143.22 352.90 143.95 C 355.48 144.12 354.92 147.31 355.18 149.08 C 353.89 149.59 352.52 150.85 351.07 150.10 Z" />
<path fill="#ffffff" opacity="1.00" d=" M 389.07 144.23 C 389.79 144.11 391.22 143.88 391.94 143.76 C 392.49 145.44 392.94 147.14 393.29 148.88 C 391.70 150.03 389.84 150.43 387.90 150.20 C 387.85 148.28 386.63 145.19 389.07 144.23 Z" />
<path fill="#ffffff" opacity="1.00" d=" M 414.45 146.00 C 415.85 143.37 419.17 143.33 420.55 146.01 C 418.51 146.06 416.48 146.06 414.45 146.00 Z" />
<path fill="#ffffff" opacity="1.00" d=" M 468.55 144.62 C 469.69 144.14 470.88 143.82 472.12 143.67 C 472.84 145.50 474.38 147.91 472.52 149.60 C 471.17 151.35 469.32 149.61 467.82 149.13 C 468.06 147.63 467.76 145.98 468.55 144.62 Z" />
<path fill="#ffffff" opacity="1.00" d=" M 484.73 143.93 C 485.56 143.95 487.20 143.99 488.03 144.01 C 488.53 145.60 488.95 147.22 489.30 148.87 C 487.70 150.02 485.86 150.44 483.93 150.20 C 483.38 148.03 483.54 145.84 484.73 143.93 Z" />
<path fill="#ffffff" opacity="1.00" d=" M 512.42 145.93 C 513.54 144.65 514.98 143.83 516.71 143.71 C 517.11 144.30 517.92 145.49 518.32 146.08 C 516.34 146.08 514.37 146.05 512.42 145.93 Z" />
<path fill="#ffffff" opacity="1.00" d=" M 547.10 143.75 C 549.11 143.76 551.73 144.50 551.34 147.08 C 551.73 149.75 549.11 150.72 546.95 150.31 C 545.95 148.14 545.97 145.88 547.10 143.75 Z" />
</g>
<g id="#262625ff">
<path fill="#262625" opacity="1.00" d=" M 80.40 12.25 C 84.51 9.95 89.24 8.70 93.96 8.96 C 99.95 8.70 105.37 11.61 111.11 12.76 C 117.18 13.48 123.33 12.94 129.41 13.42 C 125.00 15.02 120.28 15.46 115.79 16.80 C 112.48 16.29 109.13 15.51 105.81 16.52 C 110.11 17.14 114.55 17.54 118.57 19.37 C 120.88 20.17 123.20 21.70 125.76 20.80 L 122.14 19.83 C 122.81 19.49 123.49 19.16 124.17 18.84 C 129.65 21.63 136.07 20.41 141.38 17.87 C 140.06 18.84 138.63 19.63 137.16 20.34 C 136.02 20.90 134.89 21.48 133.77 22.09 C 137.47 22.11 141.28 22.36 144.87 21.27 C 149.88 20.04 153.94 16.74 158.06 13.83 C 156.46 18.63 154.70 23.48 151.51 27.49 C 149.07 31.06 145.08 32.96 141.58 35.29 C 143.93 35.11 146.61 35.65 148.67 34.17 L 148.83 35.67 C 146.59 35.91 144.39 36.38 142.22 36.96 C 146.53 39.23 150.66 42.34 152.34 47.12 C 149.74 44.71 147.01 42.33 143.52 41.35 C 145.11 47.01 148.42 53.92 155.11 54.38 C 160.67 55.35 165.34 51.89 170.15 49.81 C 166.79 54.53 161.09 57.15 155.35 57.16 C 156.48 59.75 156.73 62.54 155.76 65.21 C 155.46 62.60 154.35 60.25 152.84 58.14 C 150.43 56.87 147.94 55.77 145.32 55.02 C 148.30 59.67 150.95 64.52 153.74 69.27 C 157.08 72.35 162.25 70.88 166.33 70.52 C 165.71 71.83 165.38 73.50 163.95 74.21 C 159.26 77.05 153.89 78.69 148.46 79.31 C 151.43 84.98 156.34 89.45 162.31 91.79 C 163.73 92.10 165.16 92.41 166.54 92.87 C 157.17 93.45 149.44 86.82 143.96 79.92 C 146.02 85.34 147.64 91.00 146.98 96.87 L 146.33 96.82 C 146.04 92.14 143.88 87.94 141.52 84.00 C 141.34 87.28 140.96 90.53 140.71 93.80 C 139.93 93.20 138.37 91.99 137.59 91.38 C 138.63 97.21 142.81 101.87 148.25 104.01 C 142.63 103.71 137.51 100.50 134.21 96.03 C 134.02 97.17 133.81 98.31 133.58 99.45 C 132.81 97.19 132.09 94.92 131.20 92.70 C 130.48 98.03 130.81 103.67 134.13 108.14 L 135.08 108.04 L 134.79 109.20 C 131.19 106.81 128.97 103.02 127.19 99.17 C 127.17 102.46 126.21 105.58 124.54 108.38 C 124.49 107.03 124.39 104.31 124.35 102.96 C 120.33 107.11 116.40 111.37 111.98 115.09 C 110.01 116.82 107.43 117.43 104.98 118.11 C 104.22 120.14 103.92 122.30 103.71 124.45 C 104.24 124.36 105.28 124.18 105.81 124.09 L 105.83 124.30 C 104.60 124.78 103.40 125.32 102.22 125.91 C 105.38 126.41 108.52 124.95 111.66 125.82 C 112.65 128.39 113.01 131.09 113.22 133.82 C 115.81 136.95 120.44 133.71 123.80 134.39 C 127.43 136.46 131.70 138.07 135.88 136.68 C 136.46 137.01 137.61 137.67 138.19 138.00 C 142.20 135.71 146.64 137.45 150.18 139.78 C 152.84 141.83 154.31 144.97 156.70 147.26 C 159.31 148.20 162.12 148.42 164.80 149.09 C 166.86 152.10 168.83 155.17 170.93 158.14 C 169.34 157.39 167.79 156.50 166.12 155.92 C 164.59 156.49 163.16 157.31 161.71 158.06 C 162.30 156.14 162.95 154.25 163.54 152.34 L 165.37 152.57 C 164.59 151.73 163.80 150.91 163.01 150.09 C 161.67 149.94 160.34 149.78 159.01 149.62 C 158.95 152.20 158.94 154.77 158.84 157.35 C 157.70 155.14 156.56 152.93 155.28 150.79 C 155.02 152.62 154.81 154.46 154.54 156.29 C 153.68 151.34 152.54 146.36 150.20 141.87 C 149.53 140.14 147.47 139.86 146.08 138.99 C 148.04 144.39 150.19 149.73 152.02 155.18 C 149.04 149.95 145.55 144.96 141.25 140.71 C 139.79 139.17 137.61 138.91 135.63 138.63 C 138.62 141.36 141.73 144.01 144.12 147.31 C 140.60 145.31 137.60 142.49 133.92 140.75 C 138.82 145.76 143.36 151.15 146.95 157.19 C 143.96 154.41 141.80 150.87 138.75 148.15 C 134.62 144.26 130.23 140.62 125.69 137.20 C 123.61 135.28 120.62 136.12 118.10 136.03 C 125.06 140.11 132.36 144.33 137.16 151.01 C 132.92 146.99 128.14 143.56 122.86 141.03 C 126.31 145.11 130.49 148.60 133.10 153.35 C 126.80 146.83 120.59 140.04 112.62 135.50 C 112.22 139.46 116.19 141.09 118.51 143.51 C 124.06 148.83 129.37 154.60 133.16 161.33 C 129.73 159.76 126.40 157.93 123.35 155.70 C 120.92 152.96 119.75 149.33 117.72 146.30 C 115.51 143.71 111.79 142.84 109.77 140.06 C 108.79 137.07 108.88 133.83 108.23 130.75 C 109.60 129.88 110.93 128.94 112.23 127.96 C 110.83 126.51 109.10 125.65 107.03 125.91 C 107.51 126.37 108.46 127.30 108.94 127.77 C 107.91 128.26 106.88 128.76 105.85 129.27 C 106.60 133.17 106.96 137.12 107.65 141.03 C 110.98 143.35 115.24 144.71 117.41 148.35 C 119.26 151.55 120.97 154.85 122.17 158.35 C 119.36 155.09 118.07 150.86 115.37 147.55 C 111.60 144.19 106.70 142.29 103.17 138.63 C 101.86 136.70 102.19 134.14 101.61 131.97 C 98.70 135.91 100.26 141.14 99.73 145.69 C 103.82 149.22 107.74 153.01 111.20 157.17 C 106.00 153.32 101.57 148.44 95.81 145.37 C 96.36 145.36 97.47 145.35 98.02 145.35 C 98.19 139.85 99.19 134.40 99.03 128.90 C 87.64 126.65 76.20 124.66 64.80 122.47 C 64.73 123.32 64.58 125.03 64.51 125.88 C 75.07 126.59 85.56 128.58 95.80 131.25 C 95.55 135.62 94.85 139.97 94.99 144.36 C 94.52 144.58 93.59 145.01 93.12 145.22 C 100.66 151.63 108.70 157.84 114.37 166.04 C 105.73 159.74 96.65 154.06 87.64 148.31 C 78.32 142.77 68.95 137.17 58.84 133.17 C 58.16 133.92 57.48 134.67 56.80 135.42 C 55.32 135.96 53.87 136.59 52.46 137.29 C 54.06 138.51 55.75 139.59 57.37 140.79 C 53.68 139.83 49.83 139.74 46.06 140.20 C 41.77 140.73 37.44 140.38 33.14 140.67 C 29.01 143.64 27.14 148.66 23.78 152.28 C 25.40 147.00 28.61 142.09 33.39 139.18 C 38.83 139.62 44.28 139.50 49.70 138.91 C 51.97 135.60 56.65 135.29 58.25 131.45 C 59.55 131.99 60.84 132.54 62.12 133.11 C 62.89 129.50 63.25 125.81 64.21 122.23 C 66.14 122.12 68.07 122.03 70.00 121.95 C 69.99 118.41 70.01 114.87 70.00 111.34 C 67.67 114.78 65.06 118.73 60.57 119.35 C 63.86 115.91 66.86 112.00 67.46 107.12 C 65.32 109.16 63.24 111.29 60.90 113.10 C 62.57 110.17 64.00 107.07 64.66 103.73 C 64.00 104.36 62.68 105.62 62.02 106.25 C 57.02 107.81 52.61 110.68 47.93 112.93 C 45.54 114.01 43.56 115.99 40.84 116.22 C 43.59 113.48 47.17 112.08 50.76 110.83 C 55.28 108.11 60.41 105.84 63.13 101.04 C 60.43 102.79 57.79 104.64 55.08 106.40 L 56.69 102.23 C 55.17 103.32 53.83 104.63 52.43 105.88 L 54.60 106.15 L 54.63 107.03 C 53.82 106.82 52.20 106.41 51.39 106.21 L 51.90 107.67 C 49.29 108.45 46.74 109.39 44.15 110.23 C 41.22 111.89 38.39 113.73 35.41 115.30 C 30.80 117.60 26.69 120.70 22.83 124.09 C 26.34 118.92 32.33 116.62 37.04 112.88 C 31.40 113.71 25.90 115.21 20.28 116.12 C 14.72 122.63 7.02 127.10 2.12 134.16 C 1.89 135.57 1.63 136.99 1.26 138.39 C 0.32 134.49 3.09 131.32 5.45 128.61 C 10.77 124.67 15.42 119.94 20.29 115.51 C 24.39 114.38 28.66 114.02 32.72 112.71 C 34.77 111.80 37.01 112.78 39.07 113.04 L 37.07 111.36 C 40.36 110.74 43.56 109.75 46.78 108.85 C 49.43 107.31 51.84 105.42 54.29 103.59 L 53.63 102.78 C 56.86 102.12 58.22 99.23 58.27 96.15 C 57.11 97.19 55.98 98.26 54.81 99.28 C 55.67 96.90 56.61 94.55 57.43 92.16 C 53.70 96.15 49.23 99.33 44.36 101.79 L 44.09 101.59 C 48.27 97.89 51.24 92.99 52.49 87.54 C 49.40 89.38 46.09 91.01 42.42 91.17 C 45.87 88.91 48.90 86.05 50.01 81.95 C 46.45 83.50 42.81 85.23 38.83 85.09 C 40.61 84.00 42.42 82.95 44.18 81.82 C 42.11 81.93 40.04 82.00 37.97 82.04 C 39.69 81.21 41.35 80.27 42.87 79.10 C 35.68 79.24 28.44 78.91 21.62 76.38 C 25.29 75.81 29.29 75.58 32.36 73.24 C 35.87 70.93 38.52 67.59 40.74 64.07 C 38.39 64.46 36.02 64.77 33.63 64.88 C 35.62 64.09 37.65 63.42 39.69 62.78 C 40.40 62.30 41.12 61.83 41.83 61.36 C 35.24 62.65 29.19 59.46 23.12 57.55 L 23.29 56.14 C 31.65 59.96 41.55 55.34 46.89 48.51 C 42.46 47.85 38.72 50.22 35.67 53.13 C 36.20 49.64 39.05 47.38 41.82 45.59 C 35.60 44.56 29.50 41.88 25.47 36.86 C 33.96 40.53 44.40 39.58 51.40 33.28 C 54.29 30.36 58.21 28.98 62.13 28.06 C 55.44 24.86 46.74 24.79 41.07 30.06 C 41.19 29.49 41.43 28.35 41.55 27.78 C 44.11 26.65 46.21 24.55 49.02 23.95 C 53.83 22.52 58.76 24.52 63.06 26.61 C 59.65 21.36 53.14 20.52 47.49 19.63 C 50.96 18.17 55.13 17.16 58.56 19.29 C 61.81 20.57 63.33 23.85 64.85 26.73 C 65.18 22.43 65.89 17.86 68.85 14.51 L 69.01 14.16 L 70.69 13.26 C 67.83 17.26 65.25 22.04 66.20 27.13 C 67.13 22.57 69.35 18.41 72.80 15.23 C 72.17 16.75 70.90 19.81 70.27 21.33 C 73.52 18.18 76.36 14.46 80.40 12.25 M 75.72 25.10 C 77.27 24.41 78.76 23.60 80.08 22.54 C 80.24 22.21 80.56 21.55 80.72 21.22 C 85.73 17.21 92.17 15.76 97.88 13.08 C 96.34 13.02 94.81 13.00 93.27 13.03 C 87.16 16.59 79.76 18.80 75.72 25.10 M 74.24 31.78 C 75.05 31.45 75.86 31.12 76.68 30.78 C 88.52 23.52 103.39 18.67 117.02 23.77 C 112.00 21.42 106.55 19.99 101.00 19.97 C 91.02 20.46 81.43 24.89 74.24 31.78 M 125.44 21.14 C 125.30 22.56 127.76 22.64 128.50 21.80 C 128.61 20.40 126.18 20.31 125.44 21.14 M 118.43 38.07 C 118.80 42.00 119.12 46.00 120.05 49.83 L 122.09 47.70 L 121.44 50.96 L 122.71 49.91 C 122.93 50.47 123.37 51.59 123.58 52.15 C 122.93 47.61 121.99 43.13 121.21 38.61 C 123.46 41.27 124.21 44.73 125.47 47.90 C 125.78 47.72 126.40 47.36 126.71 47.18 C 127.35 44.82 128.35 42.53 128.46 40.05 L 129.07 39.91 C 128.95 40.57 128.70 41.89 128.58 42.55 L 130.64 42.54 C 129.48 39.59 127.51 36.69 128.77 33.36 C 130.38 35.47 131.54 37.85 133.07 40.01 C 133.16 36.74 131.37 34.04 129.12 31.95 C 128.91 29.84 129.19 27.72 129.34 25.61 C 132.15 32.31 136.30 40.43 132.06 47.42 C 134.36 43.87 138.48 43.86 142.21 44.06 C 140.98 46.61 140.20 49.66 137.62 51.23 C 138.08 51.59 138.55 51.95 139.02 52.30 C 140.93 49.42 142.97 46.44 143.30 42.90 C 140.40 42.91 137.52 43.23 134.71 43.92 C 136.04 36.70 132.69 29.72 129.29 23.58 C 124.28 27.06 118.37 31.24 118.43 38.07 M 103.93 24.53 C 103.86 30.71 105.02 37.66 109.98 41.88 C 112.30 44.18 116.08 44.98 118.93 43.17 C 115.89 42.90 112.98 42.06 110.18 40.86 C 112.47 38.44 115.67 40.08 118.40 40.67 C 116.60 38.75 114.67 36.98 112.75 35.20 C 113.08 34.58 113.43 33.98 113.78 33.37 C 115.05 34.63 116.41 35.78 117.87 36.81 C 117.61 36.19 117.07 34.95 116.80 34.33 C 112.86 30.63 107.56 28.66 103.93 24.53 M 91.90 28.40 L 93.87 29.05 C 93.19 29.44 92.50 29.82 91.81 30.18 C 90.27 29.37 88.62 28.92 86.87 28.86 C 88.21 31.57 92.48 30.45 93.23 33.56 C 90.45 34.20 88.00 36.64 87.46 39.47 C 91.45 37.27 94.41 33.55 98.67 31.76 C 100.18 30.76 103.17 30.23 102.37 27.67 C 100.14 28.73 97.92 29.82 96.00 31.40 C 95.31 32.42 93.28 31.70 94.19 30.43 C 95.73 29.51 97.47 28.97 98.99 28.00 C 96.62 27.99 94.26 28.26 91.90 28.40 M 75.28 36.40 C 78.82 36.09 80.63 32.60 83.26 30.67 C 79.47 30.50 76.67 33.14 75.28 36.40 M 78.94 37.11 C 79.83 37.08 81.61 37.00 82.50 36.97 C 84.03 34.45 86.92 33.09 88.04 30.30 C 84.38 31.36 80.37 33.32 78.94 37.11 M 100.03 32.15 C 100.51 32.87 100.62 33.63 100.37 34.43 L 100.38 34.92 C 101.80 34.89 103.15 34.48 104.44 33.68 L 101.35 33.12 C 102.06 32.30 102.77 31.47 103.47 30.64 C 102.31 31.12 101.17 31.62 100.03 32.15 M 69.88 35.81 C 71.27 35.90 72.65 35.98 74.04 36.05 C 74.83 34.92 75.63 33.80 76.40 32.65 C 74.18 33.61 72.01 34.67 69.88 35.81 M 83.89 36.47 C 84.31 37.15 84.77 37.82 85.26 38.46 C 87.50 36.27 89.97 34.26 91.78 31.66 C 88.80 32.58 85.90 34.02 83.89 36.47 M 95.97 42.55 C 96.46 42.32 97.43 41.86 97.92 41.63 C 98.14 38.58 97.99 35.52 98.31 32.48 C 95.45 35.12 95.98 39.07 95.97 42.55 M 90.31 39.45 C 91.86 40.01 93.41 40.57 94.95 41.14 C 95.02 39.04 95.14 36.95 95.28 34.86 C 93.39 36.12 91.70 37.65 90.31 39.45 M 99.05 38.17 C 99.07 39.82 99.35 41.44 99.51 43.07 C 102.17 41.90 105.32 41.25 107.12 38.76 C 104.75 39.25 102.48 40.03 100.31 41.11 C 100.43 37.75 106.78 39.46 104.82 35.95 C 102.89 34.48 100.35 36.64 99.05 38.17 M 64.68 38.53 C 69.17 37.95 74.01 39.13 78.23 37.24 C 73.72 37.26 68.64 35.63 64.68 38.53 M 74.65 39.62 C 80.31 40.08 85.91 41.19 91.22 43.24 C 92.74 44.06 94.28 43.22 95.73 42.70 C 89.24 39.84 81.67 37.17 74.65 39.62 M 63.42 40.25 C 63.76 41.55 67.53 41.78 67.85 40.34 C 66.57 39.59 64.73 39.56 63.42 40.25 M 63.47 47.18 L 65.98 47.10 L 65.81 45.55 C 66.38 46.04 66.94 46.53 67.50 47.03 C 70.62 46.82 74.18 49.18 76.72 46.43 C 73.56 45.74 70.26 45.57 67.25 44.33 C 69.39 43.04 71.48 41.63 73.24 39.83 C 68.90 40.33 65.32 43.31 63.47 47.18 M 60.42 42.45 C 61.74 43.05 63.49 43.54 64.84 42.76 C 65.00 41.11 59.99 40.76 60.42 42.45 M 72.93 41.12 C 74.52 41.97 76.20 42.65 77.85 43.39 C 75.55 45.05 72.09 41.27 69.65 43.90 C 72.14 44.43 74.67 44.80 77.13 45.46 C 78.15 46.11 77.49 47.17 76.98 47.91 C 79.58 48.47 82.18 49.03 84.77 49.61 C 86.85 47.84 89.04 46.22 91.20 44.55 C 88.28 44.51 85.34 44.66 82.46 45.19 C 81.50 45.61 79.27 46.77 78.91 45.03 C 79.89 42.31 86.64 46.11 85.39 42.30 C 81.29 41.52 77.13 40.43 72.93 41.12 M 102.96 42.86 C 104.19 42.94 106.65 43.10 107.88 43.18 C 105.44 44.60 102.57 43.71 99.93 43.78 C 94.50 43.38 89.41 46.54 85.91 50.45 C 92.00 50.57 97.93 48.67 104.04 48.95 C 108.70 48.34 113.35 49.01 118.02 49.00 C 114.90 47.15 111.64 45.28 107.94 44.99 C 107.86 44.67 107.71 44.03 107.63 43.72 L 110.03 44.13 C 109.13 43.13 108.22 42.14 107.31 41.15 C 105.84 41.67 104.39 42.24 102.96 42.86 M 55.07 46.99 C 58.68 47.52 62.41 47.00 64.68 43.85 C 62.44 43.88 60.20 43.89 57.97 43.97 C 57.00 44.98 56.03 45.98 55.07 46.99 M 129.24 43.98 C 129.85 44.64 129.85 44.64 129.24 43.98 M 135.54 46.02 C 134.44 47.53 133.26 48.98 132.08 50.42 C 133.93 49.77 135.75 49.03 137.59 48.33 C 138.29 47.54 139.01 46.76 139.73 45.98 C 138.16 46.75 136.58 47.53 135.01 48.28 C 135.14 47.72 135.40 46.59 135.54 46.02 M 54.24 47.95 C 53.75 48.62 52.77 49.96 52.28 50.64 C 54.99 49.98 57.70 49.02 60.53 49.30 C 59.22 49.78 57.90 50.22 56.56 50.62 C 59.76 50.76 62.94 51.13 66.13 51.33 C 68.21 51.01 70.09 49.87 72.03 49.10 C 66.07 49.03 60.19 47.91 54.24 47.95 M 71.13 51.08 C 70.08 53.30 69.07 55.55 68.24 57.86 C 73.70 55.20 79.22 52.56 85.22 51.34 C 82.60 49.93 79.59 49.66 76.79 48.78 C 74.89 49.53 73.00 50.27 71.13 51.08 M 94.79 56.59 C 100.78 59.06 107.01 62.53 110.32 68.33 C 107.50 67.87 104.95 66.46 102.98 64.41 C 100.38 61.74 97.20 59.76 93.91 58.06 C 92.73 58.96 91.56 59.87 90.39 60.78 L 90.06 60.46 C 90.53 60.01 91.48 59.12 91.95 58.68 C 92.00 58.26 92.09 57.42 92.14 57.00 C 90.18 56.98 88.22 56.96 86.26 56.96 C 82.66 60.85 81.05 66.08 81.70 71.33 C 81.03 70.11 79.69 67.66 79.02 66.43 C 79.45 72.32 82.87 77.34 87.15 81.16 C 84.46 80.21 81.94 78.85 79.39 77.57 C 79.91 82.50 82.11 86.95 84.20 91.36 C 80.82 88.70 78.21 85.27 75.55 81.93 C 75.99 81.49 76.45 81.05 76.90 80.62 C 74.96 76.66 73.31 72.55 71.08 68.74 C 71.61 71.09 72.43 73.36 73.14 75.65 C 73.80 76.75 74.49 77.83 75.20 78.90 C 75.00 79.25 74.58 79.96 74.38 80.31 C 74.28 81.49 74.87 82.55 75.20 83.65 C 76.24 85.88 77.11 88.18 77.94 90.49 C 75.11 87.60 73.49 83.87 71.90 80.22 C 71.72 80.21 71.37 80.18 71.19 80.17 C 70.85 81.20 70.54 82.24 70.25 83.29 C 70.15 82.57 69.95 81.14 69.85 80.42 C 68.78 78.28 68.23 75.90 66.90 73.90 C 65.65 73.07 64.72 71.94 64.55 70.40 C 63.50 71.06 62.45 71.70 61.37 72.29 C 57.05 74.45 52.63 76.41 48.01 77.84 C 50.48 77.36 52.92 76.76 55.38 76.24 C 54.31 78.17 53.18 80.07 52.09 82.00 C 52.95 80.97 53.78 79.93 54.62 78.89 C 56.24 82.85 57.21 87.62 61.30 89.85 C 63.73 90.14 66.15 88.94 68.63 89.26 C 68.70 90.12 68.84 91.84 68.91 92.71 C 70.15 92.36 71.40 92.04 72.65 91.74 C 74.60 95.50 76.48 99.42 79.61 102.38 C 82.11 105.05 85.55 106.47 88.69 108.22 C 93.73 111.06 98.90 113.72 104.30 115.81 C 106.21 116.61 108.72 116.80 110.33 115.29 C 114.83 111.18 119.03 106.77 123.23 102.36 C 127.20 96.66 127.89 89.65 129.59 83.11 C 127.44 85.58 124.29 86.97 121.27 85.09 C 120.07 86.42 118.84 87.72 117.62 89.02 L 117.44 88.78 C 117.55 88.29 117.77 87.31 117.88 86.83 C 118.37 86.48 119.34 85.80 119.82 85.46 C 118.87 83.08 117.08 81.00 116.84 78.38 C 117.04 78.34 117.43 78.26 117.62 78.22 L 118.23 78.42 C 119.09 78.33 119.92 78.10 120.71 77.73 C 120.39 77.46 119.76 76.91 119.45 76.63 C 121.40 75.92 123.53 76.16 125.56 76.08 C 124.47 76.47 123.37 76.87 122.28 77.25 C 122.11 79.43 125.60 77.69 126.72 77.30 C 126.76 77.75 126.84 78.65 126.88 79.10 C 128.46 79.85 129.75 81.04 130.98 82.25 C 131.78 79.79 132.38 77.28 132.76 74.73 C 128.62 74.46 124.49 74.88 120.36 74.97 C 123.62 71.61 128.61 73.67 132.67 72.54 C 132.12 68.46 129.96 64.82 129.59 60.69 C 125.13 71.16 115.82 78.95 105.05 82.35 C 104.50 82.53 103.39 82.89 102.83 83.07 C 109.02 79.80 113.46 73.89 114.92 67.04 C 112.80 70.29 110.10 73.09 106.82 75.17 C 112.48 68.95 117.10 60.62 115.61 51.95 C 115.11 55.40 114.52 58.84 113.50 62.19 C 112.93 59.93 113.47 57.22 111.66 55.45 C 111.72 56.31 111.82 58.03 111.88 58.89 L 110.33 58.16 C 110.50 59.91 110.64 61.66 110.76 63.42 C 107.91 58.70 105.44 53.71 101.92 49.43 C 98.67 50.73 96.93 54.02 94.79 56.59 M 88.30 55.98 C 89.83 55.99 91.37 56.00 92.90 56.01 C 93.69 54.20 94.49 52.41 95.22 50.58 C 92.53 51.84 90.35 53.88 88.30 55.98 M 131.37 51.45 C 131.92 53.43 135.83 53.97 137.26 52.50 C 135.60 51.38 133.27 51.82 131.37 51.45 M 49.05 58.41 C 49.82 58.28 51.36 58.02 52.13 57.88 C 52.28 57.58 52.56 56.97 52.70 56.67 C 52.32 56.33 51.55 55.65 51.17 55.31 C 51.57 55.17 52.39 54.91 52.80 54.77 C 52.74 53.97 52.63 52.37 52.57 51.57 C 50.67 53.42 50.05 56.05 49.05 58.41 M 54.08 52.36 C 53.97 55.73 52.49 60.61 56.07 62.64 C 55.82 58.93 55.53 55.22 56.04 51.52 C 55.55 51.73 54.57 52.15 54.08 52.36 M 57.13 51.78 C 57.13 53.21 57.12 54.65 57.09 56.09 C 58.91 55.74 60.74 55.42 62.59 55.21 L 62.46 53.88 C 61.23 54.02 58.78 54.31 57.56 54.45 C 57.73 54.04 58.07 53.22 58.24 52.80 C 60.62 52.94 63.33 54.08 65.45 52.46 C 62.72 51.90 59.92 51.70 57.13 51.78 M 60.28 64.22 C 62.50 62.40 64.78 60.66 66.98 58.81 C 67.71 56.10 68.81 53.51 69.82 50.89 C 64.54 53.27 60.91 58.48 60.28 64.22 M 142.07 58.40 C 141.81 55.94 141.21 53.52 140.53 51.14 C 138.12 53.46 141.02 56.14 142.07 58.40 M 127.09 52.62 C 131.35 59.16 135.67 65.65 139.70 72.34 L 139.40 69.75 C 139.87 69.75 140.82 69.76 141.29 69.77 C 141.25 64.19 140.62 58.63 138.60 53.38 C 137.76 54.14 135.66 54.34 135.98 55.83 C 137.43 59.68 139.03 63.49 140.03 67.50 C 139.85 68.32 139.58 69.12 139.23 69.89 C 138.85 65.05 137.01 60.43 134.72 56.20 C 132.85 54.01 129.77 53.30 127.09 52.62 M 118.37 68.00 C 120.63 63.93 122.25 59.50 122.50 54.81 C 120.64 59.04 119.70 63.59 118.37 68.00 M 57.40 57.40 C 57.31 57.92 57.13 58.96 57.04 59.48 C 58.28 59.72 60.54 58.20 60.71 56.95 C 59.55 56.47 58.45 56.62 57.40 57.40 M 50.08 59.07 C 49.40 59.95 48.73 60.83 48.07 61.72 C 49.80 61.89 51.52 62.01 53.25 62.13 C 53.17 61.27 53.00 59.55 52.91 58.69 C 52.20 58.79 50.79 58.98 50.08 59.07 M 50.45 74.68 C 51.93 74.15 53.46 73.71 54.87 73.01 C 58.09 68.99 59.75 64.11 60.31 59.03 C 55.02 62.68 51.94 68.56 50.45 74.68 M 48.84 65.74 C 50.16 65.66 51.29 62.99 49.45 62.86 C 48.14 62.89 47.19 65.55 48.84 65.74 M 49.18 73.78 C 51.03 70.11 52.44 66.23 54.44 62.62 C 49.61 63.54 47.78 69.47 49.18 73.78 M 74.91 68.11 C 76.15 71.54 78.29 74.54 81.05 76.93 C 79.06 73.94 76.87 71.10 74.91 68.11 M 70.16 76.78 C 69.26 78.00 69.48 78.69 70.83 78.86 C 71.77 77.76 71.55 77.06 70.16 76.78 M 119.78 79.03 C 119.33 80.66 119.90 81.21 121.50 80.68 C 121.92 79.03 121.34 78.49 119.78 79.03 M 125.46 80.08 C 125.06 81.88 124.55 83.65 123.95 85.39 C 126.75 85.75 127.74 83.57 128.35 81.28 C 127.39 80.88 126.42 80.48 125.46 80.08 M 119.76 82.48 C 119.35 84.83 124.61 85.02 123.92 82.51 C 122.65 82.15 121.03 82.22 119.76 82.48 M 65.10 90.96 C 65.25 91.12 65.54 91.44 65.69 91.61 L 65.79 91.79 C 65.70 91.94 65.52 92.25 65.43 92.41 C 65.84 93.36 66.56 93.46 67.60 92.71 C 67.57 92.11 67.53 90.90 67.51 90.30 C 66.30 89.68 65.49 89.90 65.10 90.96 M 63.54 95.39 C 64.46 96.35 65.41 97.30 66.36 98.24 C 67.26 97.31 68.19 96.43 69.10 95.52 C 68.23 95.64 66.50 95.88 65.63 96.00 C 66.38 95.10 67.08 94.16 67.75 93.19 C 66.69 93.74 64.59 94.84 63.54 95.39 M 72.98 96.04 C 72.40 100.03 73.62 103.85 75.22 107.44 C 74.09 106.46 73.01 105.44 71.92 104.42 C 71.69 108.46 72.74 112.38 74.13 116.13 C 73.10 115.49 72.06 114.86 71.02 114.24 C 71.29 116.91 70.33 120.03 71.53 122.45 C 76.06 123.64 80.87 124.02 85.53 124.70 C 85.16 122.18 82.86 120.53 82.81 117.91 C 84.58 119.80 85.96 121.96 86.53 124.53 C 88.69 126.25 91.77 126.05 94.34 126.72 C 89.54 118.87 84.18 111.38 79.33 103.56 C 79.09 104.39 78.85 105.22 78.62 106.05 C 77.81 102.21 75.44 99.00 72.98 96.04 Z" />
<path fill="#262625" opacity="1.00" d=" M 117.73 17.62 C 118.41 16.27 120.71 17.61 121.80 17.98 C 121.94 18.83 121.46 19.16 120.36 18.95 C 119.71 18.62 118.39 17.95 117.73 17.62 Z" />
<path fill="#262625" opacity="1.00" d=" M 105.46 28.83 C 107.67 29.97 109.88 31.12 112.18 32.07 C 111.76 32.72 111.33 33.35 110.92 34.00 C 110.14 33.49 108.58 32.49 107.80 31.99 C 109.52 34.25 111.49 36.31 113.30 38.51 C 111.78 38.45 110.34 38.52 108.93 39.02 C 107.03 35.92 106.06 32.39 105.46 28.83 Z" />
<path fill="#262625" opacity="1.00" d=" M 121.04 38.37 C 122.69 35.38 125.22 32.87 128.43 31.60 C 127.04 34.72 123.71 36.44 121.04 38.37 Z" />
<path fill="#262625" opacity="1.00" d=" M 92.61 61.99 C 96.63 62.36 100.97 63.34 103.63 66.69 C 100.14 64.69 96.35 63.40 92.61 61.99 Z" />
<path fill="#262625" opacity="1.00" d=" M 84.69 63.99 C 90.04 63.98 95.86 63.47 100.57 66.56 C 103.11 67.95 104.34 70.68 105.01 73.37 C 102.91 71.60 101.15 69.49 99.21 67.57 C 98.66 69.71 97.97 71.81 97.38 73.95 C 94.27 73.15 90.96 72.80 88.35 70.73 C 89.48 69.15 90.26 67.38 90.31 65.40 C 89.75 66.02 88.65 67.26 88.09 67.88 C 86.96 66.58 85.83 65.27 84.69 63.99 M 91.20 66.69 C 91.19 68.22 91.15 69.74 91.07 71.26 C 93.33 72.54 96.53 73.05 97.55 70.00 C 95.48 70.27 93.40 70.31 91.32 70.13 C 92.38 69.06 93.45 68.01 94.50 66.92 C 93.39 66.83 92.30 66.75 91.20 66.69 Z" />
<path fill="#262625" opacity="1.00" d=" M 391.13 69.01 C 394.62 68.99 398.12 68.98 401.62 69.04 C 401.59 69.78 401.55 71.26 401.53 72.00 C 405.40 72.07 409.28 71.80 413.14 72.14 C 415.45 72.33 417.34 74.57 416.99 76.90 C 417.04 85.92 416.96 94.94 417.02 103.96 C 417.18 108.78 415.12 114.24 410.52 116.40 C 408.78 117.09 406.85 116.95 405.02 117.13 C 405.09 112.99 404.23 108.52 406.72 104.89 C 407.85 97.33 406.93 89.59 407.22 81.96 C 405.36 81.95 403.52 81.94 401.67 81.93 C 401.70 92.90 401.61 103.87 401.72 114.83 C 398.21 115.79 394.61 116.31 391.04 116.99 C 391.09 105.30 391.09 93.61 391.08 81.92 C 389.63 81.94 388.19 81.96 386.75 81.98 C 386.81 93.21 386.79 104.45 386.77 115.68 C 383.21 116.03 379.68 116.59 376.13 117.04 C 376.15 106.01 376.19 94.99 376.06 83.96 C 377.14 83.21 378.23 82.46 379.30 81.69 C 378.27 81.69 376.21 81.70 375.18 81.71 C 376.09 78.46 376.90 75.18 378.03 71.99 C 382.41 72.00 386.78 72.00 391.15 72.00 C 391.15 71.25 391.14 69.76 391.13 69.01 Z" />
<path fill="#262625" opacity="1.00" d=" M 447.03 68.86 C 449.76 69.38 452.31 70.55 454.94 71.43 C 454.77 72.62 454.60 73.81 454.43 75.00 C 458.66 75.00 462.90 74.99 467.13 75.01 C 466.78 78.22 466.17 81.39 465.74 84.59 C 463.39 84.56 461.04 84.55 458.70 84.56 C 462.56 94.56 466.05 104.71 470.05 114.67 C 467.12 115.67 464.18 116.64 461.25 117.63 C 457.43 107.40 453.85 97.05 449.60 87.00 C 445.43 97.22 440.96 107.30 436.74 117.50 C 433.80 116.55 430.87 115.61 427.93 114.67 C 432.39 104.69 436.46 94.52 440.72 84.45 C 437.60 84.46 434.48 84.46 431.38 84.05 C 431.82 81.05 432.06 78.03 432.11 75.00 C 436.07 74.94 440.04 75.15 444.00 74.91 C 445.51 73.21 445.92 70.83 447.03 68.86 Z" />
<path fill="#262625" opacity="1.00" d=" M 169.40 72.07 C 179.30 71.92 189.19 72.03 199.08 72.00 C 199.03 75.27 198.73 78.55 197.86 81.72 C 194.44 81.66 191.03 81.67 187.61 81.66 C 187.67 89.44 187.53 97.22 187.64 105.00 C 187.49 107.11 189.50 108.21 190.80 109.49 C 189.94 112.35 189.22 115.25 188.55 118.16 C 183.39 118.43 178.32 114.38 178.04 109.12 C 177.93 100.62 178.02 92.11 178.02 83.61 C 179.14 83.01 180.26 82.40 181.34 81.73 C 177.21 81.54 173.08 81.63 168.95 81.61 C 168.96 78.43 169.14 75.24 169.40 72.07 Z" />
<path fill="#262625" opacity="1.00" d=" M 211.98 72.00 C 222.50 72.00 233.01 72.00 243.53 72.00 C 242.54 75.24 241.72 78.53 240.77 81.78 C 235.49 81.68 230.20 81.74 224.92 81.73 C 224.92 83.49 224.94 85.24 224.95 87.00 C 230.69 87.01 236.42 86.99 242.16 87.01 C 241.91 89.93 241.35 92.80 240.78 95.67 C 235.40 95.57 230.03 95.62 224.65 95.63 C 224.77 99.43 223.87 104.20 227.26 106.91 C 232.18 107.64 237.18 107.13 242.13 107.27 C 241.62 110.39 240.98 113.49 240.60 116.63 C 234.86 116.56 228.94 117.21 223.38 115.49 C 220.36 113.21 217.33 110.42 216.44 106.58 C 215.55 103.04 216.15 99.31 216.01 95.70 C 214.10 95.64 212.19 95.61 210.29 95.60 C 210.97 92.66 210.83 89.51 211.92 86.69 C 213.28 86.59 214.64 86.52 216.00 86.51 C 216.05 84.85 216.08 83.20 216.13 81.55 C 214.17 81.55 212.21 81.56 210.26 81.58 C 210.89 78.40 211.25 75.16 211.98 72.00 Z" />
<path fill="#262625" opacity="1.00" d=" M 256.18 72.00 C 265.48 72.02 274.78 71.96 284.08 72.01 C 287.29 71.58 289.00 75.21 288.63 77.94 C 288.41 82.76 289.32 87.82 287.51 92.42 C 285.91 95.67 282.37 97.11 279.36 98.70 C 281.64 103.10 284.90 107.23 290.05 108.24 C 289.88 111.56 289.65 114.87 289.36 118.18 C 286.17 117.47 282.62 117.26 280.02 115.06 C 275.96 111.72 273.64 106.87 271.02 102.44 C 269.30 103.22 267.60 104.03 265.91 104.86 C 265.92 108.78 265.92 112.70 265.90 116.61 C 262.94 116.65 259.98 116.67 257.02 116.70 C 256.99 114.08 257.11 111.47 256.92 108.86 C 255.93 105.87 254.38 103.10 253.17 100.19 C 254.31 99.40 255.45 98.61 256.60 97.82 C 256.51 93.17 256.49 88.51 257.06 83.89 C 258.37 83.12 259.67 82.36 260.97 81.58 C 258.66 81.60 256.35 81.63 254.05 81.67 C 254.84 78.47 255.42 75.21 256.18 72.00 M 265.92 81.67 C 265.91 85.91 265.91 90.15 265.93 94.39 C 269.78 92.71 273.90 91.58 277.52 89.42 C 280.15 87.79 279.07 84.24 279.39 81.68 C 274.90 81.66 270.41 81.67 265.92 81.67 Z" />
<path fill="#262625" opacity="1.00" d=" M 304.23 72.00 C 309.40 72.01 314.58 71.97 319.76 72.03 C 319.68 83.36 319.77 94.68 319.72 106.00 C 319.57 109.34 319.30 112.83 317.81 115.86 C 314.35 121.57 307.65 124.11 301.33 125.03 C 301.07 121.80 301.03 118.56 300.74 115.33 C 303.95 114.55 307.49 112.93 308.60 109.55 C 310.69 101.13 309.77 92.42 310.08 83.86 C 311.37 82.85 312.79 82.02 314.14 81.08 C 310.13 80.96 306.12 81.00 302.11 80.99 C 302.94 78.02 303.51 74.99 304.23 72.00 Z" />
<path fill="#262625" opacity="1.00" d=" M 333.00 72.00 C 343.51 72.00 354.02 72.00 364.53 72.00 C 363.54 75.24 362.72 78.53 361.78 81.78 C 356.50 81.69 351.23 81.74 345.96 81.73 C 345.96 83.49 345.96 85.24 345.96 87.00 C 351.79 87.00 357.61 87.00 363.44 87.00 C 362.91 89.90 362.34 92.79 361.75 95.68 C 356.40 95.56 351.04 95.63 345.69 95.62 C 345.86 99.42 344.84 104.21 348.26 106.91 C 353.18 107.64 358.19 107.12 363.15 107.27 C 362.64 110.39 361.99 113.49 361.60 116.63 C 355.89 116.56 349.99 117.19 344.45 115.49 C 341.63 113.39 338.67 110.87 337.72 107.35 C 336.43 103.61 337.17 99.57 337.01 95.70 C 335.10 95.64 333.19 95.61 331.28 95.59 C 331.89 92.65 332.01 89.62 332.82 86.72 C 334.22 86.60 335.63 86.52 337.04 86.49 C 337.06 84.86 337.08 83.24 337.11 81.61 C 335.28 81.39 333.16 82.03 331.53 81.00 C 331.81 77.97 332.34 74.97 333.00 72.00 Z" />
<path fill="#262625" opacity="1.00" d=" M 480.06 72.00 C 483.37 72.00 486.68 72.00 490.00 72.00 C 490.00 77.07 490.00 82.14 490.00 87.22 C 494.81 87.24 499.62 87.17 504.44 87.12 C 504.45 82.11 504.44 77.09 504.44 72.08 C 507.77 72.03 511.10 72.04 514.43 72.03 C 514.41 77.16 514.43 82.28 514.42 87.41 C 514.78 87.44 515.51 87.50 515.88 87.53 C 516.34 90.53 516.68 93.54 516.98 96.57 C 516.34 96.58 515.07 96.61 514.43 96.62 C 514.24 101.91 514.90 107.26 513.91 112.50 C 513.53 113.05 512.78 114.16 512.41 114.72 C 508.86 116.43 504.92 116.87 501.04 117.04 C 500.99 114.25 500.99 111.46 501.00 108.67 C 502.39 107.89 503.74 107.02 505.03 106.08 C 504.99 102.95 504.99 99.82 504.99 96.69 C 501.13 96.51 497.26 96.78 493.41 96.53 C 491.77 95.69 491.11 93.79 490.00 92.43 C 489.99 100.22 490.00 108.00 490.00 115.79 C 486.72 116.35 483.45 116.99 480.20 117.64 C 479.93 102.43 480.18 87.21 480.06 72.00 Z" />
<path fill="#262625" opacity="1.00" d=" M 528.13 72.00 C 534.08 72.01 540.02 71.97 545.98 72.03 C 545.43 74.99 544.94 77.96 544.71 80.97 C 543.98 80.99 542.53 81.02 541.81 81.03 C 541.64 89.79 541.77 98.56 541.73 107.32 C 542.92 107.42 544.11 107.52 545.30 107.63 C 545.00 110.64 544.96 113.66 544.90 116.68 C 538.93 116.66 532.95 116.66 526.98 116.69 C 527.22 113.57 527.46 110.44 528.09 107.37 C 529.39 107.35 530.69 107.33 532.00 107.31 C 532.01 99.39 531.98 91.47 532.01 83.55 C 533.32 82.87 534.60 82.16 535.90 81.45 C 532.96 81.02 530.00 80.95 527.04 80.93 C 527.36 77.95 527.77 74.98 528.13 72.00 Z" />
<path fill="#262625" opacity="1.00" d=" M 557.58 72.00 C 560.69 72.00 563.82 72.00 566.94 72.00 C 566.99 74.33 567.11 76.65 567.26 78.98 C 567.55 78.28 568.13 76.87 568.43 76.17 C 571.57 77.32 574.90 78.22 577.67 80.20 C 580.51 82.13 582.39 85.08 584.42 87.79 C 584.12 82.53 584.23 77.26 584.22 72.00 C 587.39 72.00 590.57 72.00 593.75 72.02 C 593.70 84.02 593.74 96.01 593.74 108.00 C 593.98 111.06 592.24 114.04 589.62 115.55 C 587.14 116.56 584.45 116.76 581.82 116.86 C 581.53 113.98 581.55 111.09 581.57 108.20 C 585.63 106.04 584.75 100.62 582.82 97.27 C 578.84 91.95 573.34 87.73 567.05 85.54 C 566.93 95.94 567.04 106.34 566.99 116.74 C 563.92 116.73 560.85 116.74 557.79 116.72 C 557.30 101.83 557.71 86.90 557.58 72.00 Z" />
<path fill="#262625" opacity="1.00" d=" M 56.54 78.54 C 57.89 76.28 59.67 74.20 62.12 73.11 C 64.70 73.19 66.57 75.55 66.95 77.93 C 66.75 79.27 66.13 80.53 66.10 81.90 C 67.36 83.70 70.22 84.97 69.78 87.50 C 66.77 88.19 63.23 88.49 60.62 86.51 C 58.91 84.97 58.90 82.69 58.98 80.58 C 60.39 82.99 61.95 85.54 64.78 86.44 C 63.27 84.20 60.94 82.08 61.18 79.13 C 60.97 77.12 63.61 77.06 64.84 76.44 C 63.83 75.76 62.83 75.08 61.82 74.40 C 60.93 75.50 60.09 76.63 59.29 77.79 C 58.60 77.98 57.22 78.35 56.54 78.54 Z" />
<path fill="#262625" opacity="1.00" d=" M 111.06 88.87 C 110.82 87.53 111.38 86.98 112.76 87.23 C 113.00 88.60 112.43 89.15 111.06 88.87 Z" />
<path fill="#262625" opacity="1.00" d=" M 113.16 99.39 C 112.02 100.07 108.43 97.98 109.74 96.91 C 110.96 97.18 113.66 97.65 113.16 99.39 Z" />
<path fill="#262625" opacity="1.00" d=" M 442.03 111.47 C 445.21 108.39 448.24 105.15 451.51 102.17 C 453.01 104.07 454.50 105.96 456.10 107.77 C 453.07 110.89 449.95 113.92 446.94 117.06 C 445.29 115.20 443.70 113.30 442.03 111.47 Z" />
<path fill="#262625" opacity="1.00" d=" M 53.22 114.24 C 56.82 112.70 58.79 109.07 62.01 107.00 C 55.82 114.09 49.62 121.54 41.24 126.15 C 33.80 129.77 26.48 133.64 19.02 137.21 C 17.40 141.45 18.13 146.09 17.15 150.43 C 16.68 150.35 15.73 150.21 15.25 150.13 C 14.85 150.36 14.04 150.83 13.64 151.06 C 13.50 150.30 13.22 148.78 13.08 148.02 C 11.04 152.01 8.41 155.68 4.78 158.37 C 4.87 160.08 4.94 161.80 4.90 163.53 C 4.31 162.15 3.44 160.81 3.32 159.29 C 5.18 155.22 5.16 150.66 6.57 146.44 C 8.20 140.57 11.42 135.32 15.17 130.57 C 11.85 132.04 9.67 135.00 6.90 137.20 C 9.17 134.06 11.92 131.16 15.35 129.28 C 27.66 123.48 41.00 120.25 53.22 114.24 Z" />
<path fill="#262625" opacity="1.00" d=" M 237.96 137.79 C 238.93 137.54 239.90 137.33 240.89 137.12 C 240.95 138.82 240.98 140.53 241.01 142.24 C 243.37 141.80 245.73 142.04 247.75 143.42 C 249.03 146.05 249.19 149.55 246.72 151.55 C 244.36 152.85 241.55 152.02 238.99 152.36 C 238.52 147.54 240.13 142.29 237.96 137.79 M 240.81 149.05 C 242.40 150.06 244.21 150.38 246.07 150.21 C 246.32 148.09 247.07 144.24 244.04 143.95 C 240.95 143.27 240.80 146.95 240.81 149.05 Z" />
<path fill="#262625" opacity="1.00" d=" M 265.37 137.32 C 266.72 136.23 268.15 138.55 266.94 139.51 C 265.67 140.42 264.01 138.23 265.37 137.32 Z" />
<path fill="#262625" opacity="1.00" d=" M 303.94 137.60 C 304.91 137.48 305.88 137.37 306.86 137.26 C 306.89 138.90 306.91 140.54 306.93 142.19 C 308.98 142.10 311.30 141.54 312.94 143.15 C 316.28 145.83 314.56 151.97 310.27 152.54 C 308.53 152.06 306.75 152.07 304.98 152.24 C 304.74 147.36 305.82 142.25 303.94 137.60 M 306.80 149.05 C 308.10 149.45 309.60 151.20 310.95 150.00 C 313.57 148.63 312.43 143.13 309.12 143.96 C 306.54 144.08 307.05 147.29 306.80 149.05 Z" />
<path fill="#262625" opacity="1.00" d=" M 427.08 137.26 C 427.74 137.31 429.07 137.40 429.73 137.45 C 429.76 142.40 429.49 147.37 430.21 152.28 L 428.86 152.58 C 428.56 152.37 427.95 151.96 427.64 151.75 C 427.38 146.92 427.92 142.05 427.08 137.26 Z" />
<path fill="#262625" opacity="1.00" d=" M 444.24 137.28 C 445.63 136.21 447.05 138.65 445.51 139.42 C 444.09 140.57 442.85 138.08 444.24 137.28 Z" />
<path fill="#262625" opacity="1.00" d=" M 473.22 136.63 C 474.00 137.15 474.76 137.71 475.48 138.32 C 475.77 143.00 475.21 147.71 475.99 152.36 C 472.75 151.87 467.87 153.52 466.28 149.63 C 465.89 148.02 465.98 146.35 465.85 144.72 C 467.67 142.17 470.51 141.51 473.50 142.19 C 473.36 140.34 473.23 138.48 473.22 136.63 M 468.55 144.62 C 467.76 145.98 468.06 147.63 467.82 149.13 C 469.32 149.61 471.17 151.35 472.52 149.60 C 474.38 147.91 472.84 145.50 472.12 143.67 C 470.88 143.82 469.69 144.14 468.55 144.62 Z" />
<path fill="#262625" opacity="1.00" d=" M 537.19 137.30 C 538.55 136.23 540.06 138.62 538.52 139.41 C 537.13 140.58 535.83 138.14 537.19 137.30 Z" />
<path fill="#262625" opacity="1.00" d=" M 0.00 138.10 C 1.18 142.10 0.83 146.33 0.32 150.41 C 0.87 150.34 1.97 150.21 2.52 150.14 L 1.82 151.22 C 2.49 153.24 2.86 155.32 3.24 157.41 L 2.66 157.54 C 2.08 155.18 1.34 152.81 0.00 150.76 L 0.00 138.10 Z" />
<path fill="#262625" opacity="1.00" d=" M 274.85 138.52 C 275.42 139.63 275.86 140.79 276.26 141.97 C 276.70 141.99 277.58 142.02 278.02 142.03 C 278.00 142.48 277.97 143.37 277.95 143.82 C 277.42 143.81 276.37 143.79 275.85 143.77 C 275.35 146.80 277.27 151.04 274.14 152.98 C 273.20 149.83 275.80 144.75 272.05 143.14 C 273.55 141.98 274.30 140.30 274.85 138.52 Z" />
<path fill="#262625" opacity="1.00" d=" M 204.71 141.95 C 205.43 141.99 206.85 142.05 207.57 142.08 C 208.16 144.41 208.86 146.71 209.55 149.02 C 210.49 146.81 211.12 144.49 211.60 142.14 C 212.13 142.08 213.21 141.98 213.74 141.93 C 214.33 144.29 214.90 146.66 215.45 149.03 C 216.95 146.55 216.63 142.17 220.12 141.59 C 218.98 145.03 218.07 148.56 216.64 151.89 C 216.24 152.07 215.44 152.42 215.04 152.59 C 213.81 150.50 213.43 148.03 212.56 145.78 C 211.95 148.35 211.31 150.93 210.17 153.33 C 207.07 150.28 207.07 145.51 204.71 141.95 Z" />
<path fill="#262625" opacity="1.00" d=" M 224.13 148.10 C 223.50 145.57 225.13 143.48 226.78 141.81 C 228.83 141.93 231.03 142.00 232.55 143.60 C 233.12 144.94 232.95 146.47 233.15 147.89 C 230.79 147.91 228.44 147.93 226.08 147.99 C 227.07 151.16 230.47 149.99 232.93 150.25 C 232.84 152.27 230.25 151.96 228.90 152.74 C 226.79 151.91 224.25 150.71 224.13 148.10 M 227.26 143.74 C 227.04 144.30 226.60 145.43 226.38 145.99 C 228.14 146.03 229.89 146.05 231.65 146.03 C 230.70 144.39 229.03 143.87 227.26 143.74 Z" />
<path fill="#262625" opacity="1.00" d=" M 252.76 145.91 C 252.55 142.92 255.02 141.56 257.70 141.85 C 257.98 142.37 258.53 143.41 258.80 143.93 C 257.34 143.98 255.87 144.06 254.41 144.15 C 256.07 145.87 258.06 147.21 259.89 148.75 C 259.55 149.45 258.88 150.87 258.55 151.58 C 257.90 151.85 256.61 152.38 255.96 152.65 C 255.09 152.29 253.34 151.57 252.47 151.22 C 253.82 149.64 256.05 150.34 257.84 149.99 C 256.32 148.42 254.56 147.13 252.76 145.91 Z" />
<path fill="#262625" opacity="1.00" d=" M 265.02 141.90 C 265.66 141.97 266.92 142.11 267.56 142.17 C 267.48 145.36 267.48 148.56 267.52 151.75 C 267.10 152.03 266.27 152.58 265.85 152.86 C 265.14 149.25 265.49 145.54 265.02 141.90 Z" />
<path fill="#262625" opacity="1.00" d=" M 284.42 142.52 C 286.30 141.59 289.08 141.61 290.54 143.34 C 291.54 144.68 291.33 146.35 291.24 147.91 C 288.93 147.93 286.63 147.93 284.33 147.95 C 284.95 151.27 288.58 149.94 290.95 150.24 C 291.37 152.42 288.47 152.32 287.01 152.52 C 282.10 152.33 280.74 145.15 284.42 142.52 M 284.25 146.04 C 286.11 146.07 287.97 146.06 289.83 146.04 C 288.65 143.41 285.41 143.38 284.25 146.04 Z" />
<path fill="#262625" opacity="1.00" d=" M 322.05 142.20 C 324.30 141.93 326.57 142.23 328.83 142.11 C 328.74 145.50 328.53 148.96 329.53 152.25 C 326.79 152.04 323.87 152.84 321.29 151.67 C 318.50 149.24 318.63 144.00 322.05 142.20 M 321.89 150.10 C 323.25 150.16 324.61 150.20 325.97 150.21 C 327.08 148.09 327.44 145.42 325.06 144.02 C 321.34 143.00 321.41 147.73 321.89 150.10 Z" />
<path fill="#262625" opacity="1.00" d=" M 335.17 150.03 C 333.49 147.22 334.97 143.25 337.95 142.04 C 339.86 141.86 342.43 141.55 342.71 144.11 C 340.82 144.43 338.30 143.21 337.07 145.20 C 336.67 146.47 336.67 147.73 337.10 148.99 C 338.43 151.27 341.45 149.83 343.53 150.16 C 342.00 153.45 336.67 153.16 335.17 150.03 Z" />
<path fill="#262625" opacity="1.00" d=" M 349.82 142.71 C 351.12 141.38 353.04 142.29 354.65 142.34 C 355.24 142.21 356.40 141.96 356.99 141.83 C 356.97 145.30 356.77 148.83 357.80 152.19 C 355.54 152.23 353.27 152.33 351.02 152.23 C 348.30 151.97 348.08 148.98 347.28 146.99 C 347.93 145.47 348.35 143.68 349.82 142.71 M 351.07 150.10 C 352.52 150.85 353.89 149.59 355.18 149.08 C 354.92 147.31 355.48 144.12 352.90 143.95 C 349.50 143.22 348.83 148.45 351.07 150.10 Z" />
<path fill="#262625" opacity="1.00" d=" M 370.56 142.10 C 373.72 142.57 377.99 140.79 379.78 144.42 C 380.19 147.34 380.65 150.50 379.20 153.23 C 377.19 151.40 378.39 148.41 377.97 146.04 C 378.10 143.99 375.51 143.98 374.09 143.74 C 372.76 146.67 373.02 149.90 372.78 153.03 C 369.83 150.32 371.79 145.63 370.56 142.10 Z" />
<path fill="#262625" opacity="1.00" d=" M 389.83 152.68 C 383.59 152.22 383.69 141.73 390.01 141.96 C 395.34 141.37 396.75 149.08 392.86 151.79 C 392.10 152.01 390.59 152.46 389.83 152.68 M 389.07 144.23 C 386.63 145.19 387.85 148.28 387.90 150.20 C 389.84 150.43 391.70 150.03 393.29 148.88 C 392.94 147.14 392.49 145.44 391.94 143.76 C 391.22 143.88 389.79 144.11 389.07 144.23 Z" />
<path fill="#262625" opacity="1.00" d=" M 398.78 142.21 C 399.51 142.14 400.95 142.01 401.68 141.94 C 402.48 144.41 403.31 146.88 404.31 149.29 C 405.12 146.94 405.87 144.58 406.52 142.18 C 407.08 142.10 408.21 141.95 408.78 141.87 C 406.85 145.43 407.54 150.78 403.76 152.94 C 401.70 149.54 401.37 145.33 398.78 142.21 Z" />
<path fill="#262625" opacity="1.00" d=" M 412.87 149.16 C 412.71 146.38 413.14 143.60 415.62 141.95 C 416.55 141.95 418.40 141.95 419.33 141.95 C 421.25 143.38 422.17 145.47 422.20 147.85 C 419.60 147.90 417.01 147.91 414.43 148.05 C 415.94 150.39 418.47 150.63 421.00 150.06 C 421.00 150.48 421.00 151.32 421.00 151.73 C 420.23 151.93 418.69 152.33 417.92 152.53 C 417.26 152.35 415.94 151.99 415.28 151.81 C 414.47 150.93 413.67 150.05 412.87 149.16 M 414.45 146.00 C 416.48 146.06 418.51 146.06 420.55 146.01 C 419.17 143.33 415.85 143.37 414.45 146.00 Z" />
<path fill="#262625" opacity="1.00" d=" M 450.66 141.91 C 451.88 142.03 453.11 142.17 454.35 142.31 C 456.22 142.09 458.45 141.49 459.74 143.32 C 461.69 146.16 460.70 149.91 460.63 153.12 C 456.97 151.56 459.17 146.85 458.05 143.76 C 456.67 144.05 454.97 143.79 454.10 145.15 C 453.76 147.85 453.86 150.60 453.47 153.30 C 450.84 151.24 452.41 147.40 451.94 144.54 C 451.62 143.88 450.98 142.57 450.66 141.91 Z" />
<path fill="#262625" opacity="1.00" d=" M 481.76 144.75 C 482.87 141.26 488.28 140.96 490.21 143.86 C 491.39 145.28 491.02 147.29 490.95 148.99 C 490.28 151.17 487.93 151.96 486.05 152.80 C 482.52 152.12 479.97 148.08 481.76 144.75 M 484.73 143.93 C 483.54 145.84 483.38 148.03 483.93 150.20 C 485.86 150.44 487.70 150.02 489.30 148.87 C 488.95 147.22 488.53 145.60 488.03 144.01 C 487.20 143.99 485.56 143.95 484.73 143.93 Z" />
<path fill="#262625" opacity="1.00" d=" M 495.69 141.82 C 496.97 142.05 498.27 142.29 499.55 142.57 C 500.83 142.29 502.43 141.41 503.64 142.36 C 506.98 144.55 505.85 149.11 505.89 152.47 C 505.47 152.45 504.61 152.42 504.19 152.40 C 504.00 149.49 503.82 146.56 502.97 143.75 C 501.56 143.99 498.98 143.93 499.03 145.95 C 498.57 148.34 499.99 151.70 497.14 152.94 C 496.98 150.13 496.99 147.32 496.94 144.51 C 496.63 143.84 496.00 142.49 495.69 141.82 Z" />
<path fill="#262625" opacity="1.00" d=" M 510.84 144.77 C 512.36 142.63 514.60 141.62 517.23 141.76 C 519.08 143.30 520.13 145.38 520.21 147.80 C 517.61 147.90 515.02 147.91 512.43 148.06 C 514.03 150.61 516.86 150.45 519.50 150.12 C 519.01 151.76 517.37 152.17 516.00 152.81 C 514.25 152.05 512.29 151.37 511.28 149.62 C 510.92 148.03 510.97 146.38 510.84 144.77 M 512.42 145.93 C 514.37 146.05 516.34 146.08 518.32 146.08 C 517.92 145.49 517.11 144.30 516.71 143.71 C 514.98 143.83 513.54 144.65 512.42 145.93 Z" />
<path fill="#262625" opacity="1.00" d=" M 523.97 145.14 C 524.86 142.41 529.22 140.15 530.46 143.80 C 529.42 143.89 527.36 144.09 526.32 144.18 C 527.31 146.68 531.78 146.80 530.98 149.97 C 530.80 151.54 528.73 151.84 527.67 152.74 C 526.41 152.12 525.04 151.59 524.46 150.21 C 526.18 150.17 527.92 150.13 529.65 150.08 C 527.80 148.38 525.70 146.97 523.97 145.14 Z" />
<path fill="#262625" opacity="1.00" d=" M 544.79 143.89 C 546.68 140.90 550.56 142.54 553.43 142.10 C 553.37 145.54 553.30 149.01 554.03 152.39 C 551.42 152.19 548.82 152.27 546.22 152.06 C 544.09 149.95 543.06 146.57 544.79 143.89 M 547.10 143.75 C 545.97 145.88 545.95 148.14 546.95 150.31 C 549.11 150.72 551.73 149.75 551.34 147.08 C 551.73 144.50 549.11 143.76 547.10 143.75 Z" />
<path fill="#262625" opacity="1.00" d=" M 39.53 142.96 C 46.56 144.09 53.41 146.43 59.60 149.96 C 59.87 149.82 60.42 149.53 60.69 149.38 C 65.93 152.31 70.98 156.05 74.26 161.18 C 65.75 155.52 56.88 150.33 47.40 146.45 C 44.80 145.24 42.03 144.38 39.53 142.96 Z" />
<path fill="#262625" opacity="1.00" d=" M 27.11 151.12 C 28.34 150.36 29.44 149.16 30.98 149.12 C 37.38 149.97 43.54 152.00 49.75 153.68 C 51.35 154.35 52.93 155.11 54.42 156.02 C 46.74 153.90 39.11 150.73 31.03 150.86 C 28.57 151.73 27.43 154.37 25.91 156.28 C 26.25 154.55 26.71 152.84 27.11 151.12 Z" />
</g>
<g id="#82817eff">
<path fill="#82817e" opacity="1.00" d=" M 125.44 21.14 C 126.18 20.31 128.61 20.40 128.50 21.80 C 127.76 22.64 125.30 22.56 125.44 21.14 Z" />
</g>
<g id="#f4f4f4ff">
<path fill="#f4f4f4" opacity="1.00" d=" M 75.28 36.40 C 76.67 33.14 79.47 30.50 83.26 30.67 C 80.63 32.60 78.82 36.09 75.28 36.40 Z" />
</g>
<g id="#f8f8f8ff">
<path fill="#f8f8f8" opacity="1.00" d=" M 83.89 36.47 C 85.90 34.02 88.80 32.58 91.78 31.66 C 89.97 34.26 87.50 36.27 85.26 38.46 C 84.77 37.82 84.31 37.15 83.89 36.47 Z" />
</g>
<g id="#ededecff">
<path fill="#ededec" opacity="1.00" d=" M 63.42 40.25 C 64.73 39.56 66.57 39.59 67.85 40.34 C 67.53 41.78 63.76 41.55 63.42 40.25 Z" />
</g>
<g id="#565553ff">
<path fill="#565553" opacity="1.00" d=" M 120.21 46.71 C 120.85 47.34 120.85 47.34 120.21 46.71 Z" />
</g>
<g id="#f2f2f1ff">
<path fill="#f2f2f1" opacity="1.00" d=" M 119.76 82.48 C 121.03 82.22 122.65 82.15 123.92 82.51 C 124.61 85.02 119.35 84.83 119.76 82.48 Z" />
</g>
<g id="#a5a3a0ff">
<path fill="#a5a3a0" opacity="1.00" d=" M 38.26 85.26 C 38.81 85.76 38.81 85.76 38.26 85.26 Z" />
</g>
<g id="#7f7e7bff">
<path fill="#7f7e7b" opacity="1.00" d=" M 99.52 94.93 C 102.51 95.41 105.50 95.91 108.48 96.52 C 105.60 96.75 100.65 98.67 99.52 94.93 Z" />
</g>
<g id="#313130ff">
<path fill="#313130" opacity="1.00" d=" M 443.18 142.16 C 443.88 142.10 445.29 141.97 446.00 141.90 C 445.97 145.42 446.10 148.93 445.94 152.45 C 445.47 152.44 444.55 152.44 444.08 152.43 C 443.89 149.00 444.31 145.48 443.18 142.16 Z" />
</g>
<g id="#30302fff">
<path fill="#30302f" opacity="1.00" d=" M 536.16 142.11 C 536.87 142.07 538.29 141.97 539.00 141.93 C 538.97 145.42 539.10 148.92 538.94 152.41 C 538.48 152.42 537.55 152.44 537.09 152.45 C 536.89 148.99 537.31 145.44 536.16 142.11 Z" />
</g>
<g id="#888784ff">
<path fill="#888784" opacity="1.00" d=" M 62.01 142.80 C 64.21 144.02 66.42 145.23 68.58 146.50 C 72.55 149.71 77.22 153.04 78.35 158.34 C 76.67 157.11 75.09 155.77 73.54 154.39 C 72.52 153.73 71.50 153.07 70.48 152.39 C 69.49 151.73 68.50 151.06 67.51 150.38 C 63.79 148.36 60.10 146.26 56.43 144.14 C 60.36 144.05 63.65 146.72 67.27 147.86 C 66.02 146.72 64.73 145.62 63.40 144.57 C 63.03 144.39 62.30 144.01 61.94 143.82 L 62.01 142.80 Z" />
</g>
<g id="#bebdbbff">
<path fill="#bebdbb" opacity="1.00" d=" M 133.24 154.18 C 134.64 153.85 135.15 154.38 134.77 155.76 C 133.37 156.09 132.86 155.56 133.24 154.18 Z" />
</g>
<g id="#969491ff">
<path fill="#969491" opacity="1.00" d=" M 55.23 156.29 C 55.78 156.83 55.78 156.83 55.23 156.29 Z" />
</g>
</svg>
